<svg xmlns="http://www.w3.org/2000/svg" width="1240" height="1240" viewBox="0 0 1240 1240" font-family="Inter, 'Segoe UI', system-ui, -apple-system, Helvetica, Arial, sans-serif">
<defs><linearGradient id="osc" x1="0" y1="0" x2="1" y2="0"><stop offset="0%" stop-color="#16c784"/><stop offset="50%" stop-color="#f0a92b"/><stop offset="100%" stop-color="#ea3943"/></linearGradient><radialGradient id="bgglow" cx="50%" cy="50%" r="60%"><stop offset="0%" stop-color="#10202e"/><stop offset="100%" stop-color="#0b0e14"/></radialGradient><filter id="glow" x="-30%" y="-30%" width="160%" height="160%"><feGaussianBlur stdDeviation="2.4" result="b"/><feMerge><feMergeNode in="b"/><feMergeNode in="SourceGraphic"/></feMerge></filter></defs>
<rect width="1240" height="1240" fill="#0b0e14"/>
<circle cx="620.0" cy="630.0" r="540" fill="url(#bgglow)"/>
<text x="64" y="62" font-size="13" font-weight="700" letter-spacing="3" fill="#f7931a">HOUTINI</text>
<text x="64" y="98" font-size="30" font-weight="800" letter-spacing="0.5" fill="#e8ecf3">The Bitcoin Spiral</text>
<text x="64" y="124" font-size="14" fill="#8a93a3">Price &amp; the Power Law on a 4-year cycle map &#183; a log-spiral view of every cycle</text>
<line x1="620.0" y1="630.0" x2="1098.0" y2="630.0" stroke="#1b2330" stroke-width="1"/>
<line x1="620.0" y1="630.0" x2="958.0" y2="292.0" stroke="#1b2330" stroke-width="1"/>
<line x1="620.0" y1="630.0" x2="620.0" y2="152.0" stroke="#1b2330" stroke-width="1"/>
<line x1="620.0" y1="630.0" x2="282.0" y2="292.0" stroke="#1b2330" stroke-width="1"/>
<line x1="620.0" y1="630.0" x2="142.0" y2="630.0" stroke="#1b2330" stroke-width="1"/>
<line x1="620.0" y1="630.0" x2="282.0" y2="968.0" stroke="#1b2330" stroke-width="1"/>
<line x1="620.0" y1="630.0" x2="620.0" y2="1108.0" stroke="#1b2330" stroke-width="1"/>
<line x1="620.0" y1="630.0" x2="958.0" y2="968.0" stroke="#1b2330" stroke-width="1"/>
<circle cx="620.0" cy="630.0" r="80.0" fill="none" stroke="#212b3a" stroke-width="1" stroke-dasharray="1,5"/>
<circle cx="620.0" cy="630.0" r="160.0" fill="none" stroke="#212b3a" stroke-width="1" stroke-dasharray="1,5"/>
<circle cx="620.0" cy="630.0" r="240.0" fill="none" stroke="#212b3a" stroke-width="1" stroke-dasharray="1,5"/>
<circle cx="620.0" cy="630.0" r="320.0" fill="none" stroke="#212b3a" stroke-width="1" stroke-dasharray="1,5"/>
<circle cx="620.0" cy="630.0" r="400.0" fill="none" stroke="#212b3a" stroke-width="1" stroke-dasharray="1,5"/>
<path d="M 614.3,635.6 L 613.3,637.1 L 612.4,638.6 L 611.6,640.2 L 610.9,641.9 L 610.3,643.6 L 609.9,645.3 L 609.5,647.1 L 609.3,648.9 L 609.2,650.7 L 609.2,652.5 L 609.3,654.4 L 609.6,656.2 L 609.9,658.1 L 610.4,659.9 L 611.0,661.7 L 611.8,663.5 L 612.6,665.3 L 613.6,667.1 L 614.6,668.8 L 615.8,670.4 L 617.1,672.0 L 618.5,673.6 L 620.0,675.1 L 621.6,676.6 L 623.3,677.9 L 625.1,679.2 L 627.0,680.5 L 628.9,681.6 L 631.0,682.6 L 633.1,683.6 L 635.3,684.5 L 637.6,685.2 L 640.0,685.9 L 642.4,686.4 L 644.9,686.9 L 647.4,687.2 L 650.0,687.4 L 652.6,687.5 L 655.2,687.5 L 657.9,687.4 L 660.6,687.1 L 663.3,686.7 L 666.1,686.2 L 668.8,685.5 L 671.6,684.8 L 674.3,683.8 L 677.0,682.8 L 679.8,681.6 L 682.5,680.3 L 685.2,678.9 L 687.8,677.3 L 690.4,675.6 L 693.0,673.8 L 695.5,671.9 L 698.0,669.8 L 700.4,667.6 L 702.7,665.3 L 704.9,662.9 L 707.1,660.3 L 709.2,657.6 L 711.2,654.9 L 713.2,652.0 L 715.0,649.0 L 716.7,645.9 L 718.3,642.7 L 719.8,639.5 L 721.2,636.1 L 722.5,632.6 L 723.6,629.1 L 724.6,625.5 L 725.5,621.8 L 726.2,618.1 L 726.8,614.3 L 727.3,610.4 L 727.6,606.5 L 727.7,602.5 L 727.7,598.5 L 727.6,594.5 L 727.3,590.5 L 726.8,586.4 L 726.2,582.3 L 725.4,578.3 L 724.5,574.2 L 723.4,570.1 L 722.1,566.0 L 720.7,562.0 L 719.1,558.0 L 717.4,554.0 L 715.5,550.0 L 713.4,546.1 L 711.2,542.3 L 708.8,538.5 L 706.2,534.8 L 703.5,531.1 L 700.7,527.5 L 697.7,524.0 L 694.5,520.6 L 691.2,517.3 L 687.8,514.1 L 684.2,511.0 L 680.5,508.0 L 676.6,505.2 L 672.7,502.4 L 668.6,499.8 L 664.4,497.4 L 660.0,495.0 L 655.6,492.9 L 651.0,490.8 L 646.4,488.9 L 641.7,487.2 L 636.8,485.7 L 631.9,484.3 L 627.0,483.1 L 621.9,482.0 L 616.8,481.2 L 611.6,480.5 L 606.4,480.0 L 601.1,479.7 L 595.8,479.6 L 590.5,479.6 L 585.2,479.9 L 579.8,480.4 L 574.4,481.0 L 569.0,481.9 L 563.7,482.9 L 558.3,484.2 L 553.0,485.6 L 547.7,487.3 L 542.4,489.1 L 537.2,491.2 L 532.0,493.4 L 526.9,495.8 L 521.8,498.5 L 516.8,501.3 L 511.9,504.3 L 507.1,507.5 L 502.4,510.9 L 497.8,514.4 L 493.3,518.2 L 488.9,522.1 L 484.6,526.2 L 480.5,530.5 L 476.5,534.9 L 472.6,539.5 L 468.9,544.2 L 465.4,549.1 L 462.0,554.1 L 458.8,559.3 L 455.7,564.6 L 452.8,570.1 L 450.2,575.6 L 447.7,581.3 L 445.3,587.1 L 443.2,593.0 L 441.3,598.9 L 439.6,605.0 L 438.1,611.1 L 436.8,617.4 L 435.8,623.7 L 434.9,630.0 L 434.3,636.4 L 433.9,642.8 L 433.7,649.3 L 433.8,655.8 L 434.1,662.3 L 434.6,668.9 L 435.3,675.4 L 436.3,681.9 L 437.5,688.4 L 439.0,694.9 L 440.7,701.4 L 442.6,707.8 L 444.7,714.1 L 447.1,720.5 L 449.7,726.7 L 452.5,732.9 L 455.6,739.0 L 458.9,744.9 L 462.4,750.8 L 466.1,756.6 L 470.1,762.3 L 474.2,767.9 L 478.6,773.3 L 483.1,778.6 L 487.9,783.7 L 492.8,788.7 L 497.9,793.5 L 503.3,798.2 L 508.8,802.6 L 514.4,806.9 L 520.3,811.0 L 526.3,815.0 L 532.4,818.7 L 538.7,822.2 L 545.1,825.5 L 551.7,828.6 L 558.4,831.4 L 565.2,834.0 L 572.1,836.4 L 579.1,838.6 L 586.2,840.5 L 593.4,842.2 L 600.6,843.6 L 608.0,844.8 L 615.4,845.7 L 622.8,846.4 L 630.2,846.8 L 637.7,846.9 L 645.2,846.8 L 652.8,846.4 L 660.3,845.8 L 667.8,844.9 L 675.3,843.7 L 682.8,842.3 L 690.2,840.6 L 697.6,838.6 L 705.0,836.4 L 712.3,833.9 L 719.5,831.2 L 726.6,828.2 L 733.7,824.9 L 740.6,821.4 L 747.4,817.7 L 754.2,813.6 L 760.7,809.4 L 767.2,804.9 L 773.5,800.2 L 779.7,795.3 L 785.7,790.1 L 791.5,784.7 L 797.2,779.1 L 802.6,773.3 L 807.9,767.3 L 813.0,761.1 L 817.9,754.7 L 822.5,748.1 L 827.0,741.4 L 831.2,734.4 L 835.2,727.4 L 838.9,720.1 L 842.4,712.8 L 845.7,705.3 L 848.7,697.6 L 851.4,689.9 L 853.9,682.0 L 856.1,674.1 L 858.0,666.0 L 859.6,657.9 L 861.0,649.7 L 862.1,641.4 L 862.9,633.1 L 863.4,624.8 L 863.7,616.4 L 863.6,607.9 L 863.2,599.5 L 862.6,591.0 L 861.6,582.6 L 860.4,574.2 L 858.8,565.8 L 857.0,557.5 L 854.9,549.2 L 852.5,541.0 L 849.7,532.8 L 846.7,524.7 L 843.5,516.7 L 839.9,508.9 L 836.1,501.1 L 831.9,493.4 L 827.5,485.9 L 822.9,478.6 L 818.0,471.3 L 812.8,464.3 L 807.3,457.4 L 801.7,450.7 L 795.7,444.2 L 789.6,437.8 L 783.2,431.7 L 776.6,425.8 L 769.8,420.1 L 762.7,414.6 L 755.5,409.4 L 748.1,404.5 L 740.5,399.7 L 732.7,395.3 L 724.7,391.1 L 716.6,387.1 L 708.4,383.5 L 700.0,380.1 L 691.5,377.0 L 682.9,374.2 L 674.1,371.7 L 665.3,369.5 L 656.4,367.6 L 647.4,366.0 L 638.3,364.7 L 629.2,363.8 L 620.0,363.1 L 610.8,362.8 L 601.6,362.8 L 592.3,363.1 L 583.1,363.7 L 573.9,364.7 L 564.7,365.9 L 555.5,367.5 L 546.4,369.4 L 537.3,371.7 L 528.3,374.2 L 519.4,377.1 L 510.5,380.3 L 501.8,383.8 L 493.2,387.5 L 484.7,391.6 L 476.3,396.0 L 468.1,400.7 L 460.0,405.7 L 452.1,411.0 L 444.3,416.5 L 436.8,422.4 L 429.4,428.4 L 422.3,434.8 L 415.3,441.4 L 408.6,448.3 L 402.1,455.4 L 395.9,462.7 L 389.9,470.2 L 384.1,478.0 L 378.6,486.0 L 373.4,494.2 L 368.5,502.5 L 363.8,511.1 L 359.5,519.8 L 355.4,528.6 L 351.6,537.7 L 348.2,546.8 L 345.0,556.1 L 342.2,565.5 L 339.7,575.0 L 337.6,584.6 L 335.7,594.3 L 334.2,604.1 L 333.1,613.9 L 332.2,623.8 L 331.8,633.7 L 331.6,643.7 L 331.8,653.6 L 332.4,663.6 L 333.3,673.5 L 334.5,683.4 L 336.1,693.3 L 338.0,703.2 L 340.3,713.0 L 342.9,722.7 L 345.8,732.3 L 349.1,741.9 L 352.7,751.3 L 356.7,760.6 L 361.0,769.8 L 365.6,778.9 L 370.5,787.8 L 375.7,796.5 L 381.2,805.0 L 387.1,813.4 L 393.2,821.6 L 399.6,829.6 L 406.3,837.3 L 413.3,844.9 L 420.5,852.2 L 428.0,859.2 L 435.8,866.0 L 443.8,872.6 L 452.0,878.8 L 460.4,884.8 L 469.1,890.5 L 477.9,895.9 L 487.0,901.0 L 496.2,905.8 L 505.7,910.3 L 515.2,914.5 L 525.0,918.3 L 534.8,921.8 L 544.8,924.9 L 554.9,927.8 L 565.1,930.2 L 575.4,932.3 L 585.8,934.1 L 596.3,935.5 L 606.8,936.5 L 617.4,937.2 L 627.9,937.5 L 638.5,937.5 L 649.1,937.0 L 659.7,936.3 L 670.2,935.1 L 680.7,933.6 L 691.2,931.7 L 701.6,929.5 L 712.0,926.9 L 722.2,923.9 L 732.4,920.6 L 742.5,916.9 L 752.4,912.9 L 762.2,908.5 L 771.9,903.8 L 781.4,898.8 L 790.8,893.4 L 799.9,887.7 L 808.9,881.7 L 817.7,875.4 L 826.2,868.7 L 834.6,861.8 L 842.7,854.6 L 850.5,847.1 L 858.1,839.3 L 865.5,831.2 L 872.5,822.9 L 879.3,814.3 L 885.8,805.5 L 892.0,796.5 L 897.9,787.3 L 903.4,777.8 L 908.7,768.2 L 913.6,758.3 L 918.2,748.3 L 922.4,738.1 L 926.3,727.8 L 929.9,717.3 L 933.0,706.7 L 935.8,696.0 L 938.3,685.2 L 940.4,674.3 L 942.1,663.3 L 943.4,652.2 L 944.3,641.1 L 944.9,630.0 L 945.1,618.8 L 944.9,607.6 L 944.3,596.4 L 943.3,585.2 L 941.9,574.0 L 940.1,562.9 L 938.0,551.8 L 935.5,540.8 L 932.5,529.9 L 929.3,519.1 L 925.6,508.4 L 921.6,497.8 L 917.2,487.3 L 912.4,477.0 L 907.3,466.9 L 901.8,456.9 L 895.9,447.1 L 889.8,437.5 L 883.3,428.1 L 876.4,419.0 L 869.3,410.0 L 861.8,401.3 L 854.1,392.9 L 846.0,384.7 L 837.7,376.8 L 829.0,369.2 L 820.1,361.9 L 811.0,354.9 L 801.6,348.2 L 792.0,341.8 L 782.1,335.7 L 772.0,330.0 L 761.8,324.6 L 751.3,319.6 L 740.7,314.9 L 729.9,310.7 L 718.9,306.7 L 707.8,303.2 L 696.6,300.0 L 685.3,297.2 L 673.8,294.9 L 662.3,292.9 L 650.7,291.3 L 639.0,290.1 L 627.3,289.3 L 615.6,288.9 L 603.8,288.9 L 592.1,289.3 L 580.3,290.1 L 568.6,291.4 L 556.9,293.0 L 545.3,295.1 L 533.7,297.5 L 522.2,300.4 L 510.8,303.6 L 499.5,307.2 L 488.4,311.3 L 477.3,315.7 L 466.5,320.5 L 455.7,325.7 L 445.2,331.2 L 434.8,337.1 L 424.7,343.4 L 414.7,350.0 L 405.0,357.0 L 395.5,364.3 L 386.3,371.9 L 377.3,379.9 L 368.6,388.2 L 360.2,396.8 L 352.1,405.6 L 344.3,414.8 L 336.8,424.2 L 329.6,433.9 L 322.7,443.8 L 316.2,454.0 L 310.0,464.4 L 304.2,475.1 L 298.8,485.9 L 293.7,496.9 L 289.0,508.1 L 284.7,519.5 L 280.8,531.0 L 277.3,542.6 L 274.2,554.4 L 271.5,566.3 L 269.2,578.3 L 267.3,590.4 L 265.8,602.5 L 264.8,614.7 L 264.1,626.9 L 263.9,639.2 L 264.1,651.5 L 264.8,663.7 L 265.8,676.0 L 267.3,688.2 L 269.2,700.4 L 271.6,712.5 L 274.3,724.5 L 277.5,736.4 L 281.0,748.3 L 285.0,760.0 L 289.4,771.5 L 294.2,783.0 L 299.4,794.2 L 305.0,805.3 L 310.9,816.2 L 317.2,826.9 L 324.0,837.4 L 331.0,847.7 L 338.4,857.7 L 346.2,867.4 L 354.3,876.9 L 362.8,886.1 L 371.5,895.0 L 380.6,903.7 L 390.0,912.0 L 399.6,920.0 L 409.6,927.6 L 419.8,935.0 L 430.2,941.9 L 440.9,948.5 L 451.9,954.8 L 463.0,960.6 L 474.4,966.1 L 485.9,971.2 L 497.6,975.9 L 509.5,980.2 L 521.6,984.1 L 533.8,987.6 L 546.1,990.6 L 558.5,993.2 L 571.0,995.4 L 583.5,997.2 L 596.2,998.5 L 608.9,999.4 L 621.6,999.9 L 634.3,999.9 L 647.0,999.5 L 659.7,998.6 L 672.4,997.3 L 685.0,995.6 L 697.6,993.5 L 710.1,990.9 L 722.5,987.8 L 734.8,984.4 L 747.0,980.5 L 759.1,976.2 L 771.0,971.5 L 782.8,966.4 L 794.3,960.8 L 805.7,954.9 L 816.9,948.6 L 827.9,941.9 L 838.7,934.8 L 849.2,927.3 L 859.4,919.5 L 869.4,911.3 L 879.1,902.8 L 888.5,894.0 L 897.6,884.8 L 906.4,875.3 L 914.9,865.5 L 923.1,855.4 L 930.8,845.0 L 938.3,834.4 L 945.3,823.5 L 952.0,812.3 L 958.4,800.9 L 964.3,789.3 L 969.8,777.5 L 974.9,765.5 L 979.6,753.4 L 983.9,741.0 L 987.8,728.6 L 991.2,715.9 L 994.2,703.2 L 996.8,690.3 L 998.9,677.4 L 1000.6,664.4 L 1001.8,651.3 L 1002.6,638.2 L 1003.0,625.1 L 1002.8,611.9 L 1002.3,598.7 L 1001.2,585.5 L 999.7,572.4 L 997.8,559.3 L 995.4,546.3 L 992.6,533.3 L 989.3,520.5 L 985.6,507.7 L 981.4,495.1 L 976.8,482.7 L 971.7,470.4 L 966.3,458.2 L 960.4,446.3 L 954.1,434.5 L 947.4,423.0 L 940.3,411.7 L 932.8,400.7 L 925.0,389.9 L 916.7,379.3 L 908.1,369.1 L 899.2,359.1 L 889.8,349.5 L 880.2,340.2 L 870.3,331.2 L 860.0,322.5 L 849.4,314.2 L 838.6,306.3 L 827.4,298.8 L 816.0,291.6 L 804.4,284.8 L 792.5,278.4 L 780.4,272.4 L 768.1,266.9 L 755.6,261.8 L 743.0,257.1 L 730.1,252.8 L 717.1,249.0 L 704.0,245.6 L 690.8,242.7 L 677.4,240.2 L 664.0,238.2 L 650.5,236.7 L 637.0,235.6 L 623.4,235.0 L 609.8,234.8 L 596.2,235.2 L 582.6,236.0 L 569.0,237.2 L 555.5,239.0 L 542.0,241.2 L 528.6,243.8 L 515.3,247.0 L 502.1,250.5 L 489.0,254.6 L 476.1,259.1 L 463.3,264.0 L 450.7,269.4 L 438.3,275.2 L 426.0,281.4 L 414.0,288.1 L 402.2,295.2 L 414.4,314.0 L 425.6,307.3 L 436.9,301.0 L 448.5,295.1 L 460.2,289.7 L 472.1,284.6 L 484.2,280.0 L 496.4,275.7 L 508.7,271.9 L 521.2,268.6 L 533.8,265.6 L 546.4,263.1 L 559.1,261.1 L 571.9,259.4 L 584.7,258.3 L 597.5,257.5 L 610.4,257.2 L 623.2,257.4 L 636.0,258.0 L 648.8,259.0 L 661.5,260.5 L 674.2,262.4 L 686.8,264.7 L 699.2,267.5 L 711.6,270.7 L 723.8,274.3 L 735.9,278.3 L 747.9,282.8 L 759.7,287.6 L 771.3,292.9 L 782.7,298.5 L 793.8,304.6 L 804.8,311.0 L 815.5,317.7 L 826.0,324.9 L 836.2,332.4 L 846.2,340.2 L 855.9,348.4 L 865.2,356.8 L 874.3,365.6 L 883.1,374.7 L 891.5,384.1 L 899.6,393.8 L 907.4,403.7 L 914.8,413.9 L 921.8,424.3 L 928.5,435.0 L 934.8,445.8 L 940.7,456.9 L 946.2,468.2 L 951.3,479.6 L 956.1,491.2 L 960.4,503.0 L 964.3,514.8 L 967.8,526.8 L 970.9,538.9 L 973.5,551.1 L 975.8,563.4 L 977.6,575.7 L 979.0,588.1 L 979.9,600.5 L 980.5,612.9 L 980.6,625.3 L 980.2,637.7 L 979.5,650.1 L 978.3,662.4 L 976.7,674.6 L 974.7,686.8 L 972.3,698.9 L 969.4,710.9 L 966.2,722.8 L 962.5,734.5 L 958.4,746.1 L 954.0,757.6 L 949.2,768.8 L 944.0,779.9 L 938.4,790.8 L 932.4,801.5 L 926.1,812.0 L 919.4,822.3 L 912.4,832.3 L 905.1,842.0 L 897.4,851.5 L 889.4,860.7 L 881.1,869.6 L 872.6,878.3 L 863.7,886.6 L 854.5,894.6 L 845.1,902.3 L 835.5,909.6 L 825.6,916.6 L 815.5,923.2 L 805.2,929.5 L 794.6,935.5 L 783.9,941.0 L 773.0,946.2 L 761.9,951.0 L 750.7,955.4 L 739.4,959.4 L 727.9,963.1 L 716.3,966.3 L 704.7,969.1 L 692.9,971.5 L 681.1,973.6 L 669.2,975.2 L 657.3,976.4 L 645.4,977.1 L 633.4,977.5 L 621.5,977.5 L 609.5,977.0 L 597.6,976.2 L 585.7,974.9 L 573.9,973.2 L 562.2,971.1 L 550.6,968.7 L 539.0,965.8 L 527.6,962.5 L 516.3,958.8 L 505.1,954.8 L 494.1,950.4 L 483.3,945.6 L 472.6,940.4 L 462.2,934.9 L 451.9,929.0 L 441.9,922.8 L 432.1,916.2 L 422.5,909.3 L 413.2,902.1 L 404.1,894.6 L 395.3,886.8 L 386.9,878.7 L 378.6,870.3 L 370.7,861.7 L 363.1,852.7 L 355.9,843.6 L 348.9,834.2 L 342.3,824.5 L 336.0,814.7 L 330.1,804.7 L 324.5,794.4 L 319.3,784.0 L 314.5,773.4 L 310.0,762.7 L 305.9,751.9 L 302.2,740.9 L 298.9,729.8 L 295.9,718.6 L 293.4,707.3 L 291.2,696.0 L 289.4,684.5 L 288.1,673.1 L 287.1,661.6 L 286.5,650.1 L 286.3,638.6 L 286.5,627.1 L 287.2,615.7 L 288.2,604.2 L 289.6,592.9 L 291.3,581.6 L 293.5,570.3 L 296.1,559.2 L 299.0,548.2 L 302.3,537.3 L 306.0,526.5 L 310.1,515.8 L 314.5,505.4 L 319.2,495.1 L 324.4,484.9 L 329.8,475.0 L 335.6,465.3 L 341.7,455.7 L 348.1,446.4 L 354.9,437.4 L 361.9,428.6 L 369.3,420.0 L 376.9,411.7 L 384.8,403.7 L 392.9,396.0 L 401.3,388.5 L 410.0,381.4 L 418.9,374.6 L 428.0,368.1 L 437.3,361.9 L 446.8,356.1 L 456.5,350.5 L 466.4,345.4 L 476.4,340.5 L 486.6,336.1 L 496.9,332.0 L 507.4,328.2 L 517.9,324.8 L 528.6,321.8 L 539.3,319.2 L 550.2,316.9 L 561.0,315.0 L 572.0,313.5 L 582.9,312.4 L 593.9,311.6 L 604.9,311.3 L 615.9,311.3 L 626.9,311.7 L 637.8,312.4 L 648.7,313.6 L 659.5,315.1 L 670.3,317.0 L 680.9,319.2 L 691.5,321.8 L 702.0,324.8 L 712.4,328.2 L 722.6,331.8 L 732.7,335.9 L 742.6,340.2 L 752.3,344.9 L 761.9,350.0 L 771.3,355.3 L 780.5,361.0 L 789.5,367.0 L 798.2,373.3 L 806.7,379.8 L 815.0,386.7 L 823.1,393.8 L 830.8,401.2 L 838.3,408.8 L 845.6,416.7 L 852.5,424.8 L 859.2,433.2 L 865.5,441.8 L 871.5,450.5 L 877.3,459.5 L 882.7,468.6 L 887.8,477.9 L 892.5,487.4 L 897.0,497.0 L 901.0,506.8 L 904.8,516.7 L 908.2,526.7 L 911.2,536.8 L 913.9,546.9 L 916.2,557.2 L 918.2,567.5 L 919.8,577.9 L 921.1,588.3 L 922.0,598.7 L 922.5,609.1 L 922.7,619.6 L 922.5,630.0 L 921.9,640.4 L 921.0,650.7 L 919.8,661.0 L 918.2,671.2 L 916.2,681.4 L 913.9,691.4 L 911.3,701.4 L 908.3,711.2 L 905.0,721.0 L 901.3,730.6 L 897.4,740.0 L 893.1,749.3 L 888.5,758.5 L 883.6,767.5 L 878.4,776.2 L 872.9,784.8 L 867.1,793.2 L 861.0,801.4 L 854.7,809.3 L 848.1,817.0 L 841.3,824.5 L 834.2,831.7 L 826.9,838.7 L 819.3,845.4 L 811.6,851.8 L 803.6,857.9 L 795.4,863.8 L 787.1,869.4 L 778.6,874.6 L 769.9,879.6 L 761.0,884.3 L 752.0,888.6 L 742.9,892.6 L 733.7,896.3 L 724.3,899.7 L 714.9,902.8 L 705.3,905.5 L 695.7,907.9 L 686.1,909.9 L 676.3,911.6 L 666.6,913.0 L 656.8,914.0 L 647.0,914.7 L 637.2,915.1 L 627.3,915.1 L 617.5,914.8 L 607.8,914.1 L 598.0,913.2 L 588.3,911.8 L 578.7,910.2 L 569.2,908.2 L 559.7,905.9 L 550.3,903.2 L 541.1,900.3 L 532.0,897.0 L 523.0,893.5 L 514.1,889.6 L 505.4,885.4 L 496.9,880.9 L 488.5,876.2 L 480.3,871.2 L 472.3,865.9 L 464.5,860.3 L 456.9,854.5 L 449.5,848.4 L 442.4,842.1 L 435.5,835.5 L 428.8,828.7 L 422.4,821.7 L 416.2,814.5 L 410.3,807.2 L 404.7,799.6 L 399.3,791.8 L 394.2,783.9 L 389.4,775.8 L 384.9,767.5 L 380.7,759.2 L 376.8,750.7 L 373.1,742.0 L 369.8,733.3 L 366.8,724.5 L 364.1,715.6 L 361.8,706.6 L 359.7,697.6 L 357.9,688.5 L 356.5,679.3 L 355.4,670.2 L 354.6,661.0 L 354.1,651.8 L 354.0,642.6 L 354.2,633.4 L 354.6,624.3 L 355.4,615.2 L 356.5,606.1 L 358.0,597.1 L 359.7,588.2 L 361.7,579.3 L 364.0,570.6 L 366.7,561.9 L 369.6,553.4 L 372.8,545.0 L 376.3,536.7 L 380.1,528.5 L 384.1,520.5 L 388.4,512.6 L 393.0,505.0 L 397.9,497.5 L 402.9,490.1 L 408.3,483.0 L 413.8,476.1 L 419.6,469.4 L 425.6,462.9 L 431.8,456.6 L 438.2,450.5 L 444.8,444.7 L 451.6,439.2 L 458.6,433.8 L 465.7,428.8 L 473.0,424.0 L 480.4,419.4 L 488.0,415.1 L 495.7,411.1 L 503.5,407.4 L 511.5,403.9 L 519.5,400.8 L 527.6,397.9 L 535.8,395.3 L 544.1,393.0 L 552.5,391.0 L 560.8,389.3 L 569.3,387.9 L 577.7,386.7 L 586.2,385.9 L 594.6,385.4 L 603.1,385.1 L 611.6,385.2 L 620.0,385.5 L 628.4,386.2 L 636.8,387.1 L 645.1,388.3 L 653.3,389.8 L 661.5,391.6 L 669.5,393.6 L 677.5,396.0 L 685.4,398.6 L 693.2,401.4 L 700.8,404.6 L 708.4,407.9 L 715.8,411.6 L 723.0,415.5 L 730.1,419.6 L 737.0,423.9 L 743.8,428.5 L 750.3,433.3 L 756.7,438.3 L 762.9,443.6 L 769.0,449.0 L 774.8,454.6 L 780.3,460.4 L 785.7,466.4 L 790.9,472.6 L 795.8,478.9 L 800.5,485.3 L 804.9,492.0 L 809.1,498.7 L 813.1,505.6 L 816.8,512.6 L 820.3,519.7 L 823.5,526.9 L 826.4,534.2 L 829.1,541.5 L 831.5,549.0 L 833.7,556.5 L 835.6,564.0 L 837.2,571.6 L 838.6,579.3 L 839.6,586.9 L 840.5,594.6 L 841.0,602.3 L 841.3,609.9 L 841.3,617.6 L 841.0,625.2 L 840.5,632.8 L 839.7,640.4 L 838.7,647.9 L 837.4,655.3 L 835.8,662.7 L 834.1,670.0 L 832.0,677.2 L 829.7,684.3 L 827.2,691.3 L 824.4,698.2 L 821.4,705.0 L 818.2,711.6 L 814.8,718.1 L 811.1,724.5 L 807.3,730.7 L 803.2,736.8 L 798.9,742.7 L 794.5,748.5 L 789.8,754.1 L 785.0,759.5 L 780.0,764.7 L 774.9,769.7 L 769.6,774.5 L 764.1,779.2 L 758.5,783.6 L 752.8,787.8 L 746.9,791.8 L 740.9,795.6 L 734.8,799.1 L 728.7,802.5 L 722.4,805.6 L 716.0,808.4 L 709.5,811.1 L 703.0,813.5 L 696.4,815.7 L 689.8,817.6 L 683.1,819.3 L 676.4,820.8 L 669.7,822.0 L 662.9,823.0 L 656.2,823.8 L 649.4,824.3 L 642.6,824.6 L 635.9,824.6 L 629.2,824.4 L 622.5,824.0 L 615.8,823.3 L 609.2,822.4 L 602.7,821.3 L 596.2,820.0 L 589.7,818.4 L 583.4,816.6 L 577.1,814.6 L 571.0,812.4 L 564.9,810.0 L 559.0,807.4 L 553.1,804.6 L 547.4,801.6 L 541.8,798.4 L 536.4,795.0 L 531.1,791.4 L 525.9,787.7 L 520.9,783.8 L 516.0,779.8 L 511.3,775.6 L 506.8,771.2 L 502.5,766.7 L 498.3,762.1 L 494.3,757.3 L 490.5,752.5 L 486.8,747.5 L 483.4,742.4 L 480.2,737.2 L 477.1,731.9 L 474.3,726.6 L 471.6,721.1 L 469.2,715.6 L 466.9,710.1 L 464.9,704.4 L 463.1,698.8 L 461.5,693.1 L 460.1,687.3 L 458.9,681.6 L 457.9,675.8 L 457.1,670.0 L 456.5,664.3 L 456.1,658.5 L 456.0,652.7 L 456.0,647.0 L 456.2,641.3 L 456.7,635.6 L 457.3,630.0 L 458.2,624.4 L 459.2,618.9 L 460.4,613.5 L 461.8,608.1 L 463.4,602.8 L 465.2,597.6 L 467.1,592.4 L 469.2,587.4 L 471.5,582.5 L 473.9,577.6 L 476.5,572.9 L 479.3,568.3 L 482.2,563.8 L 485.2,559.5 L 488.4,555.3 L 491.7,551.2 L 495.2,547.3 L 498.7,543.5 L 502.4,539.8 L 506.2,536.4 L 510.1,533.0 L 514.1,529.8 L 518.1,526.8 L 522.3,524.0 L 526.5,521.3 L 530.8,518.8 L 535.2,516.4 L 539.6,514.2 L 544.1,512.2 L 548.6,510.4 L 553.2,508.7 L 557.8,507.3 L 562.4,505.9 L 567.0,504.8 L 571.7,503.8 L 576.3,503.1 L 581.0,502.4 L 585.6,502.0 L 590.2,501.7 L 594.8,501.6 L 599.4,501.7 L 603.9,501.9 L 608.4,502.3 L 612.9,502.9 L 617.3,503.6 L 621.6,504.4 L 625.9,505.4 L 630.1,506.6 L 634.2,507.9 L 638.3,509.4 L 642.3,511.0 L 646.2,512.7 L 650.0,514.5 L 653.7,516.5 L 657.3,518.6 L 660.7,520.8 L 664.1,523.1 L 667.4,525.6 L 670.5,528.1 L 673.6,530.7 L 676.5,533.5 L 679.3,536.3 L 681.9,539.1 L 684.4,542.1 L 686.8,545.1 L 689.1,548.2 L 691.2,551.4 L 693.2,554.6 L 695.0,557.8 L 696.7,561.1 L 698.3,564.4 L 699.7,567.8 L 701.0,571.1 L 702.2,574.5 L 703.2,577.9 L 704.0,581.3 L 704.7,584.7 L 705.3,588.1 L 705.8,591.5 L 706.1,594.9 L 706.3,598.2 L 706.3,601.5 L 706.2,604.8 L 706.0,608.1 L 705.7,611.3 L 705.2,614.4 L 704.6,617.5 L 704.0,620.6 L 703.1,623.5 L 702.2,626.5 L 701.2,629.3 L 700.1,632.1 L 698.8,634.7 L 697.5,637.3 L 696.1,639.9 L 694.6,642.3 L 693.0,644.6 L 691.4,646.8 L 689.6,649.0 L 687.8,651.0 L 686.0,652.9 L 684.1,654.8 L 682.1,656.5 L 680.1,658.1 L 678.0,659.6 L 675.9,661.0 L 673.8,662.3 L 671.6,663.5 L 669.4,664.5 L 667.2,665.4 L 665.0,666.3 L 662.8,667.0 L 660.6,667.6 L 658.4,668.1 L 656.2,668.4 L 654.0,668.7 L 651.9,668.9 L 649.7,668.9 L 647.6,668.8 L 645.5,668.7 L 643.5,668.4 L 641.5,668.0 L 639.6,667.6 L 637.7,667.0 L 635.9,666.4 L 634.1,665.6 L 632.4,664.8 L 630.8,663.9 L 629.3,662.9 L 627.8,661.8 L 626.4,660.7 L 625.1,659.5 L 623.9,658.3 L 622.8,657.0 L 621.8,655.6 L 620.8,654.2 L 620.0,652.7 L 619.3,651.2 L 618.6,649.7 L 618.1,648.1 L 617.7,646.6 L 617.4,645.0 L 617.2,643.4 L 617.1,641.8 L 617.1,640.2 L 617.3,638.6 L 617.5,637.0 L 617.9,635.4 L 618.3,633.8 L 618.9,632.3 L 619.1,631.8 L 619.0,631.7 L 619.0,631.7 L 618.9,631.7 L 618.8,631.6 L 618.8,631.6 L 618.7,631.5 L 618.7,631.5 L 618.6,631.5 L 618.6,631.4 Z" fill="#16c784" opacity="0.10" stroke="none"/>
<path d="M 574.5,674.9 L 574.8,677.8 L 575.3,680.6 L 576.0,683.5 L 576.8,686.3 L 577.8,689.1 L 578.9,692.0 L 580.2,694.8 L 581.6,697.6 L 583.2,700.3 L 585.0,703.0 L 586.8,705.6 L 588.9,708.2 L 591.0,710.8 L 593.4,713.2 L 595.8,715.6 L 598.4,717.9 L 601.1,720.1 L 604.0,722.2 L 606.9,724.2 L 610.0,726.1 L 613.2,727.9 L 616.6,729.6 L 620.0,731.1 L 623.5,732.5 L 627.1,733.8 L 630.8,734.9 L 634.6,735.9 L 638.5,736.8 L 642.5,737.5 L 646.5,738.0 L 650.5,738.4 L 654.7,738.6 L 658.8,738.6 L 663.0,738.5 L 667.3,738.2 L 671.6,737.7 L 675.8,737.1 L 680.1,736.3 L 684.4,735.3 L 688.8,734.1 L 693.0,732.7 L 697.3,731.2 L 701.6,729.5 L 705.8,727.6 L 709.9,725.5 L 714.1,723.3 L 718.1,720.8 L 722.2,718.2 L 726.1,715.5 L 729.9,712.5 L 733.7,709.4 L 737.4,706.1 L 741.0,702.6 L 744.5,699.0 L 747.8,695.3 L 751.1,691.3 L 754.2,687.3 L 757.2,683.1 L 760.0,678.7 L 762.7,674.2 L 765.3,669.6 L 767.7,664.8 L 769.9,660.0 L 772.0,655.0 L 773.9,649.9 L 775.6,644.7 L 777.1,639.5 L 778.4,634.1 L 779.6,628.6 L 780.5,623.1 L 781.3,617.5 L 781.9,611.8 L 782.2,606.1 L 782.4,600.3 L 782.3,594.5 L 782.0,588.7 L 781.5,582.9 L 780.8,577.0 L 779.8,571.1 L 778.7,565.3 L 777.3,559.4 L 775.7,553.6 L 773.9,547.8 L 771.9,542.0 L 769.6,536.3 L 767.1,530.7 L 764.4,525.1 L 761.5,519.5 L 758.4,514.1 L 755.1,508.7 L 751.5,503.5 L 747.8,498.3 L 743.8,493.3 L 739.7,488.3 L 735.3,483.5 L 730.8,478.9 L 726.1,474.4 L 721.2,470.0 L 716.1,465.8 L 710.8,461.7 L 705.4,457.9 L 699.8,454.2 L 694.0,450.7 L 688.2,447.4 L 682.1,444.3 L 676.0,441.3 L 669.7,438.6 L 663.2,436.2 L 656.7,433.9 L 650.1,431.9 L 643.3,430.0 L 636.5,428.5 L 629.6,427.1 L 622.6,426.0 L 615.6,425.2 L 608.5,424.6 L 601.4,424.2 L 594.2,424.1 L 587.0,424.3 L 579.7,424.7 L 572.5,425.4 L 565.3,426.3 L 558.0,427.5 L 550.8,428.9 L 543.6,430.6 L 536.5,432.6 L 529.4,434.8 L 522.3,437.3 L 515.4,440.1 L 508.5,443.1 L 501.7,446.3 L 494.9,449.8 L 488.3,453.6 L 481.8,457.6 L 475.4,461.8 L 469.2,466.3 L 463.1,471.0 L 457.1,476.0 L 451.3,481.1 L 445.7,486.5 L 440.2,492.1 L 434.9,497.9 L 429.8,504.0 L 424.9,510.2 L 420.2,516.6 L 415.8,523.2 L 411.5,529.9 L 407.5,536.8 L 403.7,543.9 L 400.1,551.2 L 396.8,558.5 L 393.8,566.1 L 391.0,573.7 L 388.4,581.5 L 386.2,589.3 L 384.1,597.3 L 382.4,605.4 L 381.0,613.5 L 379.8,621.7 L 378.9,630.0 L 378.3,638.3 L 378.0,646.7 L 378.0,655.1 L 378.3,663.5 L 378.9,671.9 L 379.8,680.3 L 380.9,688.8 L 382.4,697.1 L 384.2,705.5 L 386.3,713.8 L 388.6,722.1 L 391.3,730.3 L 394.2,738.4 L 397.5,746.4 L 401.0,754.3 L 404.8,762.2 L 408.9,769.9 L 413.3,777.5 L 418.0,784.9 L 422.9,792.2 L 428.1,799.4 L 433.5,806.3 L 439.2,813.1 L 445.2,819.7 L 451.4,826.2 L 457.8,832.4 L 464.5,838.4 L 471.3,844.2 L 478.4,849.7 L 485.7,855.0 L 493.2,860.1 L 500.9,864.9 L 508.8,869.5 L 516.9,873.8 L 525.1,877.8 L 533.5,881.5 L 542.0,885.0 L 550.6,888.1 L 559.4,891.0 L 568.3,893.5 L 577.3,895.8 L 586.4,897.8 L 595.6,899.4 L 604.8,900.7 L 614.2,901.7 L 623.5,902.4 L 632.9,902.7 L 642.3,902.7 L 651.7,902.4 L 661.1,901.8 L 670.6,900.8 L 680.0,899.5 L 689.3,897.9 L 698.7,896.0 L 707.9,893.7 L 717.2,891.1 L 726.3,888.2 L 735.3,884.9 L 744.3,881.4 L 753.1,877.5 L 761.9,873.3 L 770.4,868.8 L 778.9,864.0 L 787.2,858.9 L 795.3,853.5 L 803.3,847.8 L 811.0,841.8 L 818.6,835.5 L 826.0,829.0 L 833.1,822.2 L 840.0,815.2 L 846.7,807.9 L 853.1,800.3 L 859.3,792.5 L 865.3,784.5 L 870.9,776.3 L 876.3,767.9 L 881.4,759.3 L 886.2,750.4 L 890.7,741.5 L 894.9,732.3 L 898.8,723.0 L 902.4,713.5 L 905.6,703.9 L 908.5,694.2 L 911.1,684.3 L 913.4,674.4 L 915.3,664.4 L 916.8,654.3 L 918.0,644.1 L 918.9,633.8 L 919.4,623.6 L 919.6,613.2 L 919.4,602.9 L 918.8,592.5 L 917.9,582.2 L 916.6,571.8 L 914.9,561.5 L 912.9,551.3 L 910.5,541.1 L 907.8,531.0 L 904.7,520.9 L 901.3,511.0 L 897.5,501.1 L 893.4,491.4 L 888.9,481.8 L 884.1,472.4 L 879.0,463.1 L 873.5,454.0 L 867.8,445.1 L 861.7,436.3 L 855.2,427.8 L 848.5,419.4 L 841.5,411.3 L 834.2,403.5 L 826.6,395.8 L 818.8,388.5 L 810.7,381.4 L 802.3,374.5 L 793.7,368.0 L 784.8,361.7 L 775.7,355.8 L 766.4,350.1 L 756.9,344.8 L 747.2,339.8 L 737.4,335.1 L 727.3,330.8 L 717.1,326.8 L 706.7,323.1 L 696.2,319.8 L 685.6,316.9 L 674.9,314.3 L 664.1,312.1 L 653.1,310.3 L 642.1,308.9 L 631.1,307.8 L 620.0,307.1 L 608.9,306.8 L 597.7,306.9 L 586.6,307.4 L 575.4,308.2 L 564.3,309.5 L 553.2,311.1 L 542.1,313.2 L 531.1,315.6 L 520.2,318.3 L 509.4,321.5 L 498.7,325.1 L 488.0,329.0 L 477.6,333.3 L 467.2,337.9 L 457.0,342.9 L 447.0,348.3 L 437.1,354.1 L 427.5,360.1 L 418.0,366.5 L 408.7,373.3 L 399.7,380.4 L 390.9,387.8 L 382.4,395.5 L 374.1,403.5 L 366.1,411.8 L 358.4,420.3 L 351.0,429.2 L 343.8,438.3 L 337.0,447.7 L 330.5,457.3 L 324.4,467.1 L 318.5,477.2 L 313.0,487.5 L 307.9,498.0 L 303.1,508.6 L 298.7,519.4 L 294.6,530.4 L 291.0,541.6 L 287.7,552.9 L 284.8,564.3 L 282.3,575.8 L 280.2,587.4 L 278.5,599.0 L 277.2,610.8 L 276.3,622.6 L 275.8,634.4 L 275.7,646.3 L 276.0,658.2 L 276.7,670.1 L 277.9,681.9 L 279.5,693.7 L 281.4,705.5 L 283.8,717.2 L 286.6,728.9 L 289.8,740.4 L 293.4,751.9 L 297.4,763.2 L 301.7,774.4 L 306.5,785.5 L 311.7,796.4 L 317.2,807.1 L 323.1,817.7 L 329.4,828.0 L 336.1,838.2 L 343.1,848.1 L 350.4,857.7 L 358.1,867.2 L 366.1,876.3 L 374.5,885.2 L 383.1,893.9 L 392.1,902.2 L 401.3,910.2 L 410.8,917.9 L 420.6,925.3 L 430.7,932.3 L 441.0,939.0 L 451.6,945.3 L 462.3,951.3 L 473.3,956.9 L 484.5,962.2 L 495.9,967.0 L 507.4,971.5 L 519.1,975.5 L 531.0,979.2 L 543.0,982.5 L 555.1,985.3 L 567.3,987.7 L 579.6,989.7 L 592.0,991.3 L 604.4,992.5 L 616.9,993.2 L 629.4,993.5 L 641.9,993.4 L 654.4,992.8 L 666.8,991.8 L 679.3,990.4 L 691.7,988.5 L 704.1,986.2 L 716.3,983.5 L 728.5,980.4 L 740.6,976.8 L 752.6,972.8 L 764.5,968.4 L 776.2,963.6 L 787.7,958.4 L 799.1,952.8 L 810.2,946.8 L 821.2,940.4 L 832.0,933.6 L 842.5,926.5 L 852.8,919.0 L 862.8,911.1 L 872.6,902.9 L 882.1,894.3 L 891.3,885.5 L 900.2,876.2 L 908.8,866.7 L 917.0,856.9 L 924.9,846.8 L 932.5,836.4 L 939.8,825.8 L 946.6,814.9 L 953.1,803.7 L 959.2,792.3 L 964.9,780.7 L 970.2,769.0 L 975.2,757.0 L 979.7,744.8 L 983.8,732.5 L 987.4,720.0 L 990.7,707.5 L 993.5,694.8 L 995.8,681.9 L 997.8,669.0 L 999.3,656.1 L 1000.3,643.1 L 1000.9,630.0 L 1001.0,616.9 L 1000.7,603.7 L 1000.0,590.6 L 998.7,577.5 L 997.1,564.4 L 994.9,551.4 L 992.4,538.5 L 989.3,525.6 L 985.9,512.9 L 982.0,500.2 L 977.6,487.7 L 972.8,475.3 L 967.6,463.1 L 962.0,451.1 L 956.0,439.2 L 949.5,427.6 L 942.6,416.2 L 935.4,405.0 L 927.7,394.1 L 919.7,383.4 L 911.3,373.0 L 902.5,362.9 L 893.4,353.0 L 884.0,343.5 L 874.2,334.3 L 864.1,325.5 L 853.6,317.0 L 842.9,308.9 L 831.9,301.1 L 820.7,293.7 L 809.1,286.7 L 797.4,280.0 L 785.4,273.8 L 773.1,268.0 L 760.7,262.7 L 748.1,257.7 L 735.3,253.2 L 722.4,249.1 L 709.3,245.5 L 696.0,242.3 L 682.7,239.6 L 669.3,237.3 L 655.8,235.5 L 642.2,234.2 L 628.5,233.3 L 614.9,232.9 L 601.2,233.0 L 587.5,233.5 L 573.8,234.5 L 560.2,236.0 L 546.6,238.0 L 533.1,240.4 L 519.6,243.3 L 506.3,246.7 L 493.1,250.5 L 480.0,254.8 L 467.0,259.5 L 454.2,264.7 L 441.6,270.3 L 429.1,276.4 L 416.9,282.9 L 404.9,289.8 L 393.1,297.1 L 381.6,304.9 L 370.4,313.0 L 359.4,321.5 L 348.7,330.4 L 338.3,339.7 L 328.3,349.4 L 318.5,359.3 L 309.2,369.7 L 300.1,380.3 L 291.5,391.3 L 283.2,402.6 L 275.3,414.1 L 267.8,426.0 L 260.7,438.0 L 254.0,450.4 L 247.7,463.0 L 241.9,475.8 L 236.5,488.8 L 231.6,501.9 L 227.1,515.3 L 223.0,528.8 L 219.5,542.5 L 216.4,556.2 L 213.8,570.1 L 211.7,584.1 L 210.0,598.2 L 208.8,612.3 L 208.1,626.5 L 208.0,640.6 L 208.3,654.8 L 209.0,669.0 L 210.3,683.2 L 212.1,697.3 L 214.3,711.4 L 217.1,725.4 L 220.3,739.3 L 224.0,753.0 L 228.2,766.7 L 232.8,780.2 L 237.9,793.6 L 243.5,806.8 L 249.5,819.8 L 256.0,832.6 L 262.9,845.1 L 270.3,857.5 L 278.1,869.5 L 286.3,881.3 L 294.9,892.9 L 303.9,904.1 L 313.3,915.0 L 323.1,925.6 L 333.2,935.9 L 343.7,945.8 L 354.6,955.4 L 365.7,964.6 L 377.2,973.4 L 389.0,981.8 L 401.1,989.8 L 413.5,997.4 L 426.1,1004.5 L 439.0,1011.2 L 452.1,1017.5 L 465.4,1023.3 L 479.0,1028.7 L 492.7,1033.6 L 506.6,1038.0 L 520.6,1042.0 L 534.8,1045.5 L 549.1,1048.4 L 563.5,1050.9 L 578.0,1052.9 L 592.6,1054.4 L 607.2,1055.4 L 621.8,1055.9 L 636.5,1055.9 L 651.1,1055.3 L 665.7,1054.3 L 680.3,1052.8 L 694.8,1050.8 L 709.3,1048.2 L 723.6,1045.2 L 737.9,1041.7 L 752.1,1037.7 L 766.1,1033.2 L 779.9,1028.2 L 793.6,1022.7 L 807.1,1016.8 L 820.4,1010.4 L 833.5,1003.5 L 846.4,996.2 L 859.0,988.5 L 871.3,980.3 L 883.4,971.7 L 895.1,962.7 L 906.6,953.2 L 917.7,943.4 L 928.5,933.2 L 938.9,922.6 L 949.0,911.7 L 958.7,900.4 L 968.0,888.8 L 976.9,876.9 L 985.4,864.6 L 993.5,852.1 L 1001.1,839.3 L 1008.3,826.2 L 1015.1,812.9 L 1021.4,799.3 L 1027.2,785.5 L 1032.6,771.5 L 1037.5,757.4 L 1041.9,743.0 L 1045.8,728.6 L 1049.2,713.9 L 1052.1,699.2 L 1054.5,684.4 L 1056.4,669.4 L 1057.8,654.4 L 1058.6,639.4 L 1059.0,624.3 L 1058.8,609.2 L 1058.1,594.1 L 1056.8,579.0 L 1055.1,564.0 L 1052.8,549.0 L 1050.1,534.1 L 1046.8,519.2 L 1043.0,504.5 L 1038.7,490.0 L 1033.8,475.6 L 1028.5,461.3 L 1022.7,447.2 L 1016.4,433.3 L 1009.7,419.7 L 1002.4,406.3 L 994.7,393.1 L 986.6,380.2 L 978.0,367.5 L 969.0,355.2 L 959.5,343.2 L 949.6,331.5 L 939.3,320.1 L 928.7,309.1 L 917.6,298.5 L 906.2,288.2 L 894.4,278.4 L 882.3,268.9 L 869.9,259.9 L 857.1,251.3 L 844.1,243.1 L 830.8,235.4 L 817.2,228.1 L 803.3,221.4 L 789.3,215.0 L 775.0,209.2 L 760.5,203.9 L 745.8,199.0 L 731.0,194.7 L 716.0,190.9 L 700.8,187.6 L 685.6,184.8 L 670.3,182.6 L 654.9,180.8 L 639.4,179.6 L 623.9,179.0 L 608.3,178.9 L 592.8,179.3 L 577.3,180.2 L 561.8,181.7 L 546.4,183.7 L 531.0,186.3 L 515.7,189.3 L 500.5,192.9 L 485.5,197.1 L 470.6,201.7 L 455.8,206.9 L 441.3,212.5 L 426.9,218.7 L 412.7,225.4 L 398.8,232.5 L 385.1,240.1 L 371.7,248.2 L 383.9,267.0 L 396.7,259.3 L 409.7,252.1 L 422.9,245.3 L 436.4,239.0 L 450.1,233.1 L 463.9,227.7 L 478.0,222.9 L 492.1,218.5 L 506.4,214.5 L 520.9,211.1 L 535.4,208.2 L 550.0,205.8 L 564.7,203.9 L 579.4,202.5 L 594.2,201.6 L 608.9,201.3 L 623.7,201.4 L 638.4,202.0 L 653.1,203.2 L 667.8,204.8 L 682.3,207.0 L 696.8,209.6 L 711.2,212.8 L 725.4,216.4 L 739.5,220.5 L 753.5,225.2 L 767.2,230.2 L 780.8,235.8 L 794.2,241.8 L 807.3,248.3 L 820.2,255.2 L 832.9,262.5 L 845.3,270.3 L 857.4,278.5 L 869.2,287.1 L 880.7,296.0 L 891.8,305.4 L 902.7,315.2 L 913.1,325.3 L 923.3,335.7 L 933.0,346.5 L 942.4,357.6 L 951.4,369.1 L 959.9,380.8 L 968.1,392.8 L 975.8,405.1 L 983.1,417.6 L 990.0,430.3 L 996.4,443.3 L 1002.3,456.5 L 1007.8,469.8 L 1012.9,483.4 L 1017.4,497.1 L 1021.5,510.9 L 1025.1,524.9 L 1028.2,538.9 L 1030.8,553.1 L 1033.0,567.3 L 1034.6,581.6 L 1035.7,595.9 L 1036.4,610.3 L 1036.6,624.6 L 1036.2,638.9 L 1035.4,653.2 L 1034.1,667.4 L 1032.3,681.6 L 1030.0,695.7 L 1027.2,709.6 L 1024.0,723.5 L 1020.3,737.2 L 1016.1,750.8 L 1011.4,764.3 L 1006.3,777.5 L 1000.8,790.6 L 994.8,803.5 L 988.3,816.1 L 981.5,828.5 L 974.2,840.6 L 966.6,852.5 L 958.5,864.1 L 950.0,875.4 L 941.2,886.4 L 932.0,897.1 L 922.4,907.5 L 912.5,917.5 L 902.3,927.2 L 891.7,936.5 L 880.8,945.4 L 869.7,953.9 L 858.2,962.1 L 846.5,969.8 L 834.6,977.2 L 822.4,984.1 L 810.0,990.6 L 797.4,996.6 L 784.6,1002.2 L 771.6,1007.4 L 758.5,1012.1 L 745.2,1016.3 L 731.7,1020.1 L 718.2,1023.5 L 704.6,1026.3 L 690.9,1028.7 L 677.1,1030.6 L 663.3,1032.0 L 649.5,1033.0 L 635.6,1033.5 L 621.7,1033.5 L 607.9,1033.0 L 594.0,1032.1 L 580.2,1030.6 L 566.5,1028.7 L 552.8,1026.4 L 539.3,1023.5 L 525.9,1020.2 L 512.6,1016.5 L 499.4,1012.3 L 486.4,1007.6 L 473.6,1002.5 L 461.0,997.0 L 448.6,991.0 L 436.4,984.6 L 424.5,977.8 L 412.8,970.6 L 401.3,963.0 L 390.2,955.1 L 379.3,946.7 L 368.7,938.0 L 358.5,929.0 L 348.6,919.6 L 339.0,909.8 L 329.7,899.8 L 320.8,889.4 L 312.3,878.8 L 304.2,867.9 L 296.4,856.7 L 289.1,845.2 L 282.1,833.6 L 275.6,821.7 L 269.5,809.6 L 263.8,797.2 L 258.5,784.8 L 253.7,772.1 L 249.3,759.3 L 245.4,746.4 L 241.9,733.4 L 238.9,720.2 L 236.3,707.0 L 234.2,693.7 L 232.5,680.3 L 231.3,666.9 L 230.6,653.5 L 230.3,640.1 L 230.5,626.6 L 231.2,613.3 L 232.3,599.9 L 233.9,586.6 L 235.9,573.4 L 238.4,560.3 L 241.4,547.2 L 244.8,534.3 L 248.6,521.6 L 252.8,509.0 L 257.5,496.5 L 262.6,484.2 L 268.1,472.1 L 274.1,460.3 L 280.4,448.6 L 287.1,437.2 L 294.2,426.0 L 301.7,415.1 L 309.6,404.5 L 317.8,394.1 L 326.3,384.1 L 335.2,374.3 L 344.4,364.9 L 353.9,355.8 L 363.7,347.0 L 373.9,338.6 L 384.2,330.6 L 394.9,322.9 L 405.8,315.6 L 416.9,308.7 L 428.2,302.2 L 439.8,296.1 L 451.5,290.4 L 463.5,285.1 L 475.6,280.2 L 487.8,275.8 L 500.2,271.7 L 512.7,268.1 L 525.3,265.0 L 538.0,262.3 L 550.7,260.0 L 563.6,258.2 L 576.4,256.8 L 589.3,255.8 L 602.3,255.3 L 615.2,255.3 L 628.1,255.7 L 640.9,256.5 L 653.7,257.8 L 666.5,259.5 L 679.1,261.7 L 691.7,264.3 L 704.2,267.3 L 716.5,270.7 L 728.7,274.6 L 740.8,278.9 L 752.7,283.6 L 764.4,288.7 L 775.9,294.1 L 787.2,300.0 L 798.3,306.3 L 809.2,312.9 L 819.8,319.9 L 830.2,327.3 L 840.2,334.9 L 850.0,343.0 L 859.6,351.3 L 868.8,360.0 L 877.7,369.0 L 886.2,378.2 L 894.5,387.8 L 902.4,397.6 L 909.9,407.7 L 917.1,418.0 L 924.0,428.6 L 930.4,439.3 L 936.5,450.3 L 942.2,461.5 L 947.4,472.8 L 952.3,484.3 L 956.8,496.0 L 960.9,507.8 L 964.5,519.7 L 967.8,531.7 L 970.6,543.8 L 973.0,556.0 L 975.0,568.3 L 976.5,580.6 L 977.7,592.9 L 978.4,605.3 L 978.6,617.6 L 978.5,630.0 L 977.9,642.3 L 976.9,654.5 L 975.5,666.7 L 973.7,678.9 L 971.4,690.9 L 968.7,702.9 L 965.7,714.7 L 962.2,726.4 L 958.3,738.0 L 954.1,749.4 L 949.4,760.7 L 944.4,771.8 L 939.0,782.7 L 933.2,793.3 L 927.1,803.8 L 920.6,814.1 L 913.8,824.1 L 906.7,833.8 L 899.2,843.3 L 891.4,852.5 L 883.4,861.5 L 875.0,870.1 L 866.3,878.4 L 857.4,886.5 L 848.2,894.2 L 838.7,901.5 L 829.1,908.6 L 819.1,915.3 L 809.0,921.6 L 798.7,927.6 L 788.2,933.2 L 777.5,938.5 L 766.7,943.3 L 755.7,947.8 L 744.5,951.9 L 733.3,955.6 L 721.9,959.0 L 710.5,961.9 L 698.9,964.4 L 687.3,966.5 L 675.7,968.3 L 664.0,969.6 L 652.2,970.5 L 640.5,971.0 L 628.8,971.1 L 617.1,970.8 L 605.4,970.1 L 593.7,969.0 L 582.1,967.5 L 570.5,965.6 L 559.1,963.3 L 547.7,960.6 L 536.5,957.5 L 525.4,954.0 L 514.4,950.2 L 503.6,946.0 L 493.0,941.4 L 482.5,936.5 L 472.2,931.2 L 462.1,925.6 L 452.2,919.6 L 442.6,913.3 L 433.2,906.7 L 424.0,899.8 L 415.1,892.5 L 406.4,885.0 L 398.1,877.2 L 390.0,869.1 L 382.2,860.7 L 374.7,852.1 L 367.5,843.3 L 360.7,834.2 L 354.1,824.9 L 347.9,815.4 L 342.1,805.7 L 336.6,795.8 L 331.4,785.8 L 326.6,775.5 L 322.1,765.2 L 318.1,754.7 L 314.4,744.1 L 311.0,733.3 L 308.1,722.5 L 305.5,711.6 L 303.3,700.7 L 301.5,689.6 L 300.0,678.6 L 299.0,667.5 L 298.3,656.4 L 298.1,645.3 L 298.2,634.2 L 298.6,623.1 L 299.5,612.1 L 300.8,601.1 L 302.4,590.2 L 304.4,579.3 L 306.8,568.6 L 309.5,557.9 L 312.6,547.4 L 316.1,537.0 L 319.9,526.7 L 324.0,516.6 L 328.5,506.7 L 333.3,496.9 L 338.5,487.3 L 344.0,477.9 L 349.8,468.8 L 355.9,459.8 L 362.2,451.1 L 368.9,442.6 L 375.9,434.3 L 383.1,426.4 L 390.6,418.6 L 398.4,411.2 L 406.3,404.0 L 414.5,397.2 L 423.0,390.6 L 431.6,384.3 L 440.5,378.4 L 449.5,372.7 L 458.7,367.4 L 468.1,362.4 L 477.6,357.8 L 487.2,353.5 L 497.0,349.5 L 506.9,345.9 L 516.9,342.6 L 527.0,339.7 L 537.2,337.1 L 547.5,334.9 L 557.8,333.1 L 568.1,331.6 L 578.5,330.4 L 588.9,329.7 L 599.3,329.3 L 609.6,329.2 L 620.0,329.5 L 630.3,330.2 L 640.6,331.2 L 650.8,332.6 L 661.0,334.3 L 671.0,336.4 L 681.0,338.8 L 690.9,341.6 L 700.6,344.7 L 710.3,348.1 L 719.7,351.8 L 729.1,355.9 L 738.2,360.3 L 747.2,365.0 L 756.0,370.0 L 764.7,375.2 L 773.1,380.8 L 781.3,386.6 L 789.3,392.8 L 797.0,399.1 L 804.5,405.8 L 811.8,412.6 L 818.8,419.7 L 825.6,427.1 L 832.0,434.6 L 838.3,442.4 L 844.2,450.3 L 849.8,458.5 L 855.1,466.8 L 860.2,475.2 L 864.9,483.9 L 869.3,492.7 L 873.4,501.6 L 877.2,510.6 L 880.7,519.7 L 883.8,528.9 L 886.6,538.3 L 889.1,547.6 L 891.3,557.1 L 893.1,566.6 L 894.6,576.1 L 895.7,585.7 L 896.6,595.3 L 897.0,604.9 L 897.2,614.5 L 897.0,624.0 L 896.5,633.6 L 895.7,643.0 L 894.5,652.4 L 893.0,661.8 L 891.2,671.0 L 889.1,680.2 L 886.7,689.3 L 883.9,698.3 L 880.9,707.2 L 877.6,715.9 L 873.9,724.5 L 870.0,732.9 L 865.8,741.2 L 861.3,749.3 L 856.6,757.3 L 851.6,765.0 L 846.3,772.6 L 840.8,779.9 L 835.1,787.1 L 829.1,794.0 L 822.9,800.7 L 816.5,807.2 L 809.8,813.4 L 803.0,819.4 L 796.0,825.2 L 788.8,830.6 L 781.5,835.8 L 774.0,840.8 L 766.3,845.4 L 758.5,849.8 L 750.6,853.9 L 742.5,857.8 L 734.4,861.3 L 726.1,864.5 L 717.8,867.5 L 709.3,870.1 L 700.9,872.5 L 692.3,874.5 L 683.7,876.2 L 675.1,877.7 L 666.4,878.8 L 657.8,879.7 L 649.1,880.2 L 640.5,880.4 L 631.8,880.3 L 623.2,880.0 L 614.6,879.3 L 606.1,878.3 L 597.6,877.1 L 589.2,875.5 L 580.9,873.7 L 572.6,871.6 L 564.5,869.2 L 556.5,866.5 L 548.5,863.5 L 540.8,860.3 L 533.1,856.9 L 525.6,853.1 L 518.3,849.2 L 511.1,844.9 L 504.1,840.5 L 497.2,835.8 L 490.6,830.9 L 484.1,825.8 L 477.8,820.4 L 471.8,814.9 L 466.0,809.2 L 460.3,803.3 L 454.9,797.2 L 449.8,790.9 L 444.9,784.5 L 440.2,778.0 L 435.7,771.3 L 431.5,764.5 L 427.6,757.5 L 423.9,750.5 L 420.5,743.3 L 417.3,736.0 L 414.4,728.7 L 411.8,721.3 L 409.4,713.8 L 407.3,706.2 L 405.5,698.7 L 404.0,691.0 L 402.7,683.4 L 401.7,675.7 L 401.0,668.1 L 400.5,660.4 L 400.3,652.8 L 400.4,645.1 L 400.7,637.6 L 401.3,630.0 L 402.2,622.5 L 403.3,615.1 L 404.7,607.7 L 406.3,600.4 L 408.2,593.2 L 410.3,586.1 L 412.7,579.1 L 415.3,572.2 L 418.2,565.4 L 421.2,558.7 L 424.5,552.2 L 428.0,545.8 L 431.7,539.6 L 435.6,533.5 L 439.7,527.6 L 444.0,521.9 L 448.5,516.3 L 453.2,511.0 L 458.0,505.8 L 463.0,500.8 L 468.1,496.0 L 473.4,491.4 L 478.8,487.0 L 484.4,482.8 L 490.0,478.8 L 495.8,475.1 L 501.7,471.5 L 507.7,468.2 L 513.8,465.2 L 519.9,462.3 L 526.2,459.7 L 532.5,457.3 L 538.8,455.1 L 545.2,453.2 L 551.6,451.5 L 558.1,450.1 L 564.6,448.9 L 571.1,447.9 L 577.6,447.2 L 584.0,446.7 L 590.5,446.4 L 597.0,446.3 L 603.4,446.5 L 609.7,446.9 L 616.1,447.6 L 622.3,448.4 L 628.6,449.5 L 634.7,450.8 L 640.7,452.3 L 646.7,454.0 L 652.6,455.9 L 658.4,458.0 L 664.0,460.3 L 669.6,462.8 L 675.0,465.5 L 680.3,468.4 L 685.5,471.4 L 690.5,474.6 L 695.4,477.9 L 700.2,481.5 L 704.8,485.1 L 709.2,488.9 L 713.5,492.9 L 717.5,496.9 L 721.5,501.1 L 725.2,505.4 L 728.8,509.9 L 732.2,514.4 L 735.4,519.0 L 738.4,523.7 L 741.2,528.5 L 743.9,533.3 L 746.3,538.2 L 748.6,543.2 L 750.6,548.2 L 752.5,553.3 L 754.1,558.3 L 755.6,563.5 L 756.9,568.6 L 757.9,573.7 L 758.8,578.9 L 759.5,584.0 L 760.0,589.1 L 760.3,594.2 L 760.4,599.3 L 760.3,604.4 L 760.1,609.4 L 759.6,614.3 L 759.0,619.2 L 758.2,624.1 L 757.2,628.8 L 756.0,633.5 L 754.7,638.1 L 753.3,642.6 L 751.6,647.0 L 749.9,651.4 L 747.9,655.6 L 745.9,659.7 L 743.7,663.7 L 741.3,667.6 L 738.9,671.3 L 736.3,675.0 L 733.6,678.5 L 730.8,681.9 L 727.9,685.1 L 724.9,688.2 L 721.8,691.1 L 718.6,693.9 L 715.4,696.6 L 712.0,699.1 L 708.6,701.4 L 705.2,703.6 L 701.7,705.6 L 698.2,707.5 L 694.6,709.2 L 691.0,710.8 L 687.4,712.2 L 683.7,713.4 L 680.1,714.5 L 676.4,715.4 L 672.8,716.2 L 669.1,716.8 L 665.5,717.2 L 661.9,717.5 L 658.3,717.7 L 654.8,717.7 L 651.3,717.5 L 647.8,717.2 L 644.5,716.8 L 641.1,716.2 L 637.9,715.5 L 634.7,714.7 L 631.6,713.7 L 628.5,712.7 L 625.6,711.5 L 622.8,710.1 L 620.0,708.7 L 617.3,707.2 L 614.8,705.6 L 612.3,703.8 L 610.0,702.0 L 607.8,700.2 L 605.7,698.2 L 603.7,696.2 L 601.9,694.1 L 600.2,691.9 L 598.6,689.7 L 597.1,687.4 L 595.8,685.1 L 594.7,682.8 L 593.6,680.4 L 592.7,678.1 L 591.9,675.7 L 591.3,673.3 L 590.8,670.9 L 590.5,668.5 L 590.2,666.2 L 590.2,663.8 L 590.2,661.5 L 590.4,659.2 Z" fill="#ea3943" opacity="0.10" stroke="none"/>
<g filter="url(#glow)">
<path d="M 618.6,631.4 L 618.6,631.5 L 618.7,631.5 L 618.7,631.6 L 617.7,633.0 L 616.8,634.4 L 616.1,636.0 L 615.4,637.5 L 614.8,639.1 L 614.4,640.8 L 614.0,642.4 L 613.8,644.1 L 613.7,645.8 L 613.7,647.5 L 613.8,649.2 L 614.1,650.9 L 614.4,652.6 L 614.9,654.3 L 615.5,656.0 L 616.2,657.7 L 617.0,659.3 L 617.9,660.9 L 618.9,662.4 L 620.0,663.9 L 621.2,665.4 L 622.5,666.8 L 623.9,668.1 L 625.4,669.4 L 627.0,670.6 L 628.7,671.7 L 630.5,672.7 L 632.3,673.7 L 634.2,674.6 L 636.2,675.3 L 638.3,676.0 L 640.4,676.6 L 642.5,677.1 L 644.8,677.5 L 647.0,677.8 L 649.4,678.0 L 651.7,678.0 L 654.1,678.0 L 656.5,677.8 L 659.0,677.5 L 661.4,677.1 L 663.9,676.6 L 666.4,676.0 L 668.8,675.2 L 671.3,674.3 L 673.8,673.3 L 676.2,672.2 L 678.6,670.9 L 681.0,669.5 L 683.4,668.1 L 685.7,666.4 L 688.0,664.7 L 690.2,662.9 L 692.4,660.9 L 694.5,658.8 L 696.6,656.6 L 698.5,654.3 L 700.4,651.9 L 702.3,649.4 L 704.0,646.8 L 705.7,644.1 L 707.2,641.3 L 708.7,638.4 L 710.0,635.4 L 711.3,632.4 L 712.4,629.2 L 713.4,626.0 L 714.3,622.7 L 715.1,619.3 L 715.7,615.9 L 716.2,612.4 L 716.6,608.9 L 716.9,605.3 L 717.0,601.7 L 717.0,598.0 L 716.8,594.4 L 716.5,590.6 L 716.0,586.9 L 715.4,583.2 L 714.6,579.5 L 713.7,575.7 L 712.7,572.0 L 711.4,568.3 L 710.1,564.6 L 708.6,560.9 L 706.9,557.2 L 705.1,553.6 L 703.1,550.1 L 701.0,546.5 L 698.7,543.1 L 696.3,539.7 L 693.8,536.3 L 691.1,533.1 L 688.2,529.9 L 685.2,526.8 L 682.1,523.8 L 678.9,520.9 L 675.5,518.1 L 672.0,515.4 L 668.4,512.8 L 664.7,510.3 L 660.8,508.0 L 656.8,505.8 L 652.8,503.7 L 648.6,501.8 L 644.3,500.0 L 640.0,498.3 L 635.5,496.8 L 631.0,495.4 L 626.4,494.3 L 621.8,493.2 L 617.0,492.4 L 612.3,491.7 L 607.4,491.1 L 602.5,490.8 L 597.6,490.6 L 592.7,490.6 L 587.7,490.8 L 582.7,491.2 L 577.7,491.7 L 572.7,492.5 L 567.7,493.4 L 562.7,494.5 L 557.7,495.8 L 552.7,497.3 L 547.8,498.9 L 542.9,500.8 L 538.1,502.8 L 533.3,505.0 L 528.5,507.4 L 523.8,510.0 L 519.2,512.8 L 514.7,515.7 L 510.3,518.9 L 505.9,522.1 L 501.7,525.6 L 497.6,529.2 L 493.5,533.0 L 489.6,537.0 L 485.8,541.1 L 482.2,545.3 L 478.7,549.8 L 475.3,554.3 L 472.1,559.0 L 469.0,563.8 L 466.1,568.8 L 463.4,573.8 L 460.8,579.0 L 458.4,584.3 L 456.2,589.7 L 454.2,595.3 L 452.4,600.9 L 450.7,606.5 L 449.3,612.3 L 448.0,618.1 L 447.0,624.0 L 446.1,630.0 L 445.5,636.0 L 445.1,642.1 L 444.9,648.2 L 444.9,654.3 L 445.1,660.4 L 445.5,666.6 L 446.2,672.7 L 447.1,678.9 L 448.2,685.0 L 449.5,691.1 L 451.1,697.2 L 452.8,703.3 L 454.8,709.3 L 457.0,715.3 L 459.4,721.2 L 462.1,727.0 L 464.9,732.8 L 468.0,738.4 L 471.3,744.0 L 474.8,749.5 L 478.5,754.9 L 482.3,760.2 L 486.4,765.3 L 490.7,770.3 L 495.2,775.2 L 499.8,779.9 L 504.6,784.5 L 509.7,789.0 L 514.8,793.2 L 520.2,797.3 L 525.7,801.2 L 531.3,805.0 L 537.1,808.5 L 543.1,811.9 L 549.1,815.0 L 555.3,818.0 L 561.6,820.7 L 568.1,823.2 L 574.6,825.5 L 581.2,827.6 L 588.0,829.5 L 594.8,831.1 L 601.7,832.5 L 608.6,833.6 L 615.6,834.5 L 622.6,835.2 L 629.7,835.6 L 636.8,835.8 L 643.9,835.7 L 651.1,835.4 L 658.2,834.8 L 665.4,833.9 L 672.5,832.9 L 679.6,831.5 L 686.7,830.0 L 693.7,828.1 L 700.7,826.0 L 707.6,823.7 L 714.5,821.1 L 721.3,818.3 L 728.0,815.2 L 734.6,811.9 L 741.1,808.4 L 747.5,804.6 L 753.8,800.6 L 760.0,796.4 L 766.0,791.9 L 771.9,787.2 L 777.6,782.3 L 783.2,777.2 L 788.6,771.9 L 793.8,766.4 L 798.9,760.7 L 803.7,754.8 L 808.4,748.7 L 812.9,742.5 L 817.1,736.0 L 821.2,729.5 L 825.0,722.7 L 828.6,715.9 L 831.9,708.9 L 835.1,701.7 L 837.9,694.5 L 840.6,687.1 L 842.9,679.6 L 845.1,672.0 L 846.9,664.3 L 848.5,656.6 L 849.9,648.8 L 850.9,640.9 L 851.7,633.0 L 852.2,625.0 L 852.5,617.0 L 852.4,608.9 L 852.1,600.9 L 851.5,592.8 L 850.6,584.8 L 849.5,576.7 L 848.0,568.7 L 846.3,560.8 L 844.3,552.8 L 842.0,545.0 L 839.4,537.2 L 836.6,529.4 L 833.5,521.8 L 830.1,514.3 L 826.4,506.8 L 822.5,499.5 L 818.3,492.3 L 813.9,485.3 L 809.2,478.3 L 804.3,471.6 L 799.1,465.0 L 793.7,458.5 L 788.0,452.3 L 782.2,446.2 L 776.1,440.4 L 769.8,434.7 L 763.2,429.2 L 756.5,424.0 L 749.6,419.0 L 742.5,414.2 L 735.3,409.7 L 727.8,405.4 L 720.2,401.3 L 712.5,397.5 L 704.6,394.0 L 696.6,390.8 L 688.5,387.8 L 680.2,385.1 L 671.8,382.7 L 663.4,380.5 L 654.8,378.7 L 646.2,377.2 L 637.5,375.9 L 628.8,375.0 L 620.0,374.3 L 611.2,374.0 L 602.3,374.0 L 593.5,374.2 L 584.6,374.8 L 575.8,375.7 L 567.0,376.9 L 558.2,378.4 L 549.4,380.2 L 540.7,382.3 L 532.1,384.8 L 523.5,387.5 L 515.0,390.5 L 506.6,393.8 L 498.4,397.5 L 490.2,401.4 L 482.1,405.6 L 474.2,410.1 L 466.5,414.8 L 458.9,419.9 L 451.4,425.2 L 444.2,430.8 L 437.1,436.6 L 430.2,442.7 L 423.6,449.0 L 417.1,455.6 L 410.8,462.4 L 404.8,469.4 L 399.1,476.6 L 393.5,484.1 L 388.2,491.7 L 383.2,499.6 L 378.5,507.6 L 374.0,515.8 L 369.8,524.1 L 365.9,532.7 L 362.2,541.3 L 358.9,550.1 L 355.9,559.0 L 353.1,568.1 L 350.7,577.2 L 348.6,586.4 L 346.8,595.7 L 345.4,605.1 L 344.2,614.6 L 343.4,624.0 L 343.0,633.6 L 342.8,643.1 L 343.0,652.7 L 343.5,662.3 L 344.3,671.8 L 345.5,681.4 L 347.0,690.9 L 348.8,700.4 L 351.0,709.8 L 353.5,719.1 L 356.3,728.4 L 359.5,737.6 L 362.9,746.7 L 366.7,755.6 L 370.8,764.5 L 375.2,773.2 L 379.9,781.8 L 385.0,790.2 L 390.3,798.4 L 395.9,806.5 L 401.8,814.4 L 407.9,822.1 L 414.3,829.5 L 421.0,836.8 L 428.0,843.8 L 435.2,850.7 L 442.7,857.2 L 450.3,863.5 L 458.2,869.6 L 466.4,875.3 L 474.7,880.8 L 483.2,886.1 L 491.9,891.0 L 500.8,895.6 L 509.9,899.9 L 519.1,904.0 L 528.5,907.7 L 538.0,911.0 L 547.6,914.1 L 557.3,916.8 L 567.2,919.2 L 577.1,921.3 L 587.1,923.0 L 597.2,924.3 L 607.3,925.3 L 617.5,926.0 L 627.6,926.3 L 637.8,926.3 L 648.0,925.9 L 658.2,925.1 L 668.4,924.1 L 678.5,922.6 L 688.6,920.8 L 698.7,918.7 L 708.7,916.2 L 718.6,913.3 L 728.4,910.2 L 738.1,906.6 L 747.7,902.8 L 757.1,898.6 L 766.5,894.0 L 775.6,889.2 L 784.7,884.0 L 793.5,878.5 L 802.2,872.8 L 810.6,866.7 L 818.9,860.3 L 826.9,853.6 L 834.8,846.6 L 842.4,839.4 L 849.7,831.9 L 856.8,824.1 L 863.6,816.1 L 870.2,807.9 L 876.5,799.4 L 882.4,790.7 L 888.1,781.8 L 893.5,772.6 L 898.6,763.3 L 903.3,753.8 L 907.8,744.2 L 911.9,734.3 L 915.7,724.4 L 919.1,714.3 L 922.2,704.1 L 924.9,693.7 L 927.3,683.3 L 929.3,672.7 L 930.9,662.1 L 932.2,651.5 L 933.1,640.8 L 933.7,630.0 L 933.9,619.2 L 933.7,608.4 L 933.1,597.5 L 932.2,586.7 L 930.9,576.0 L 929.2,565.2 L 927.1,554.5 L 924.7,543.9 L 921.9,533.3 L 918.7,522.9 L 915.2,512.5 L 911.3,502.3 L 907.1,492.2 L 902.5,482.2 L 897.5,472.4 L 892.2,462.8 L 886.6,453.3 L 880.7,444.0 L 874.4,434.9 L 867.8,426.1 L 860.9,417.4 L 853.7,409.0 L 846.2,400.9 L 838.4,393.0 L 830.4,385.3 L 822.0,377.9 L 813.4,370.8 L 804.6,364.1 L 795.5,357.6 L 786.2,351.4 L 776.7,345.5 L 767.0,340.0 L 757.1,334.8 L 747.0,329.9 L 736.7,325.4 L 726.2,321.2 L 715.6,317.4 L 704.9,314.0 L 694.1,310.9 L 683.1,308.2 L 672.0,305.9 L 660.9,304.0 L 649.7,302.4 L 638.4,301.3 L 627.1,300.5 L 615.7,300.1 L 604.4,300.1 L 593.0,300.5 L 581.6,301.3 L 570.3,302.5 L 559.0,304.0 L 547.7,306.0 L 536.5,308.3 L 525.4,311.1 L 514.4,314.2 L 503.5,317.7 L 492.7,321.6 L 482.0,325.9 L 471.4,330.5 L 461.1,335.5 L 450.9,340.9 L 440.8,346.6 L 431.0,352.6 L 421.4,359.1 L 411.9,365.8 L 402.8,372.9 L 393.8,380.2 L 385.1,387.9 L 376.7,395.9 L 368.5,404.2 L 360.7,412.8 L 353.1,421.7 L 345.8,430.8 L 338.9,440.2 L 332.2,449.8 L 325.9,459.6 L 319.9,469.7 L 314.3,480.0 L 309.0,490.5 L 304.1,501.1 L 299.6,512.0 L 295.4,523.0 L 291.6,534.1 L 288.2,545.4 L 285.1,556.8 L 282.5,568.3 L 280.3,579.9 L 278.4,591.6 L 277.0,603.4 L 276.0,615.2 L 275.3,627.0 L 275.1,638.9 L 275.3,650.8 L 275.9,662.7 L 277.0,674.5 L 278.4,686.4 L 280.2,698.2 L 282.5,709.9 L 285.1,721.5 L 288.2,733.1 L 291.6,744.6 L 295.5,755.9 L 299.7,767.1 L 304.3,778.2 L 309.3,789.1 L 314.7,799.9 L 320.5,810.4 L 326.6,820.8 L 333.1,831.0 L 340.0,840.9 L 347.2,850.6 L 354.7,860.1 L 362.5,869.3 L 370.7,878.2 L 379.2,886.9 L 388.0,895.2 L 397.1,903.3 L 406.4,911.1 L 416.0,918.5 L 425.9,925.6 L 436.1,932.4 L 446.4,938.8 L 457.0,944.8 L 467.8,950.5 L 478.8,955.9 L 490.0,960.8 L 501.4,965.4 L 512.9,969.5 L 524.6,973.3 L 536.4,976.7 L 548.3,979.6 L 560.3,982.2 L 572.4,984.3 L 584.6,986.0 L 596.9,987.3 L 609.2,988.2 L 621.5,988.7 L 633.9,988.7 L 646.2,988.3 L 658.5,987.5 L 670.8,986.3 L 683.0,984.6 L 695.2,982.5 L 707.4,980.0 L 719.4,977.1 L 731.4,973.7 L 743.2,970.0 L 754.9,965.8 L 766.5,961.3 L 777.9,956.3 L 789.1,950.9 L 800.2,945.2 L 811.0,939.1 L 821.7,932.6 L 832.1,925.7 L 842.3,918.5 L 852.3,910.9 L 862.0,903.0 L 871.4,894.7 L 880.5,886.1 L 889.4,877.2 L 897.9,868.0 L 906.2,858.5 L 914.1,848.7 L 921.6,838.6 L 928.9,828.3 L 935.7,817.7 L 942.2,806.9 L 948.4,795.9 L 954.1,784.6 L 959.5,773.2 L 964.5,761.6 L 969.0,749.7 L 973.2,737.8 L 977.0,725.7 L 980.3,713.4 L 983.2,701.0 L 985.7,688.6 L 987.8,676.0 L 989.5,663.4 L 990.7,650.7 L 991.4,638.0 L 991.8,625.2 L 991.6,612.4 L 991.1,599.6 L 990.1,586.8 L 988.7,574.0 L 986.8,561.3 L 984.5,548.7 L 981.7,536.1 L 978.5,523.7 L 974.9,511.3 L 970.9,499.0 L 966.4,486.9 L 961.5,475.0 L 956.2,463.2 L 950.5,451.6 L 944.4,440.2 L 937.9,429.0 L 931.1,418.0 L 923.8,407.3 L 916.2,396.8 L 908.2,386.6 L 899.8,376.6 L 891.1,366.9 L 882.1,357.6 L 872.7,348.5 L 863.1,339.8 L 853.1,331.4 L 842.8,323.3 L 832.3,315.6 L 821.5,308.2 L 810.4,301.3 L 799.1,294.7 L 787.6,288.5 L 775.8,282.7 L 763.9,277.3 L 751.8,272.3 L 739.4,267.7 L 727.0,263.6 L 714.4,259.8 L 701.6,256.5 L 688.8,253.7 L 675.8,251.3 L 662.8,249.3 L 649.7,247.8 L 636.5,246.8 L 623.3,246.2 L 610.1,246.0 L 596.9,246.3 L 583.6,247.1 L 570.4,248.3 L 557.3,250.0 L 544.2,252.1 L 531.2,254.7 L 518.3,257.8 L 505.4,261.2 L 492.7,265.2 L 480.1,269.5 L 467.7,274.3 L 455.4,279.5 L 443.4,285.2 L 431.5,291.2 L 419.8,297.7 L 408.3,304.6" fill="none" stroke="#f7931a" stroke-width="2" opacity="0.85"/>
<path d="M 582.4,667.1 L 582.5,669.6 L 582.8,672.2 L 583.1,674.8 L 583.6,677.4 L 584.3,680.0 L 585.1,682.6 L 586.1,685.2 L 587.2,687.8 L 588.4,690.4 L 589.8,692.9 L 591.3,695.4 L 593.0,697.8 L 594.8,700.2 L 596.8,702.6 L 598.9,704.8 L 601.1,707.0 L 603.4,709.2 L 605.9,711.2 L 608.5,713.1 L 611.2,715.0 L 614.0,716.7 L 617.0,718.4 L 620.0,719.9 L 623.1,721.3 L 626.4,722.6 L 629.7,723.8 L 633.1,724.8 L 636.6,725.7 L 640.2,726.5 L 643.8,727.1 L 647.5,727.6 L 651.3,727.9 L 655.1,728.1 L 658.9,728.1 L 662.8,727.9 L 666.7,727.6 L 670.7,727.2 L 674.6,726.5 L 678.6,725.7 L 682.6,724.8 L 686.6,723.6 L 690.5,722.3 L 694.5,720.8 L 698.4,719.2 L 702.3,717.4 L 706.1,715.4 L 709.9,713.2 L 713.7,710.9 L 717.4,708.4 L 721.0,705.8 L 724.5,703.0 L 728.0,700.0 L 731.4,696.9 L 734.7,693.6 L 737.9,690.2 L 740.9,686.6 L 743.9,682.9 L 746.7,679.0 L 749.4,675.0 L 752.0,670.9 L 754.5,666.6 L 756.8,662.3 L 758.9,657.8 L 760.9,653.2 L 762.7,648.5 L 764.4,643.7 L 765.9,638.8 L 767.2,633.8 L 768.4,628.7 L 769.4,623.6 L 770.1,618.3 L 770.7,613.1 L 771.1,607.7 L 771.3,602.3 L 771.3,596.9 L 771.1,591.5 L 770.7,586.0 L 770.1,580.5 L 769.3,575.0 L 768.3,569.5 L 767.1,564.0 L 765.7,558.5 L 764.0,553.1 L 762.2,547.6 L 760.1,542.3 L 757.9,536.9 L 755.4,531.6 L 752.7,526.4 L 749.8,521.3 L 746.7,516.2 L 743.5,511.2 L 740.0,506.3 L 736.3,501.6 L 732.5,496.9 L 728.4,492.3 L 724.2,487.9 L 719.8,483.6 L 715.2,479.5 L 710.4,475.5 L 705.5,471.6 L 700.4,467.9 L 695.2,464.4 L 689.8,461.0 L 684.2,457.9 L 678.6,454.9 L 672.8,452.1 L 666.8,449.5 L 660.8,447.1 L 654.6,444.9 L 648.4,442.9 L 642.0,441.2 L 635.6,439.6 L 629.1,438.3 L 622.5,437.2 L 615.8,436.4 L 609.1,435.8 L 602.4,435.4 L 595.6,435.2 L 588.7,435.3 L 581.9,435.7 L 575.0,436.3 L 568.2,437.1 L 561.3,438.2 L 554.5,439.5 L 547.6,441.1 L 540.9,442.9 L 534.1,445.0 L 527.4,447.3 L 520.8,449.9 L 514.2,452.7 L 507.7,455.7 L 501.3,459.0 L 495.0,462.6 L 488.8,466.3 L 482.7,470.3 L 476.8,474.6 L 470.9,479.0 L 465.2,483.7 L 459.7,488.6 L 454.3,493.6 L 449.1,499.0 L 444.0,504.5 L 439.2,510.2 L 434.5,516.0 L 430.0,522.1 L 425.7,528.3 L 421.6,534.8 L 417.7,541.3 L 414.1,548.1 L 410.7,554.9 L 407.5,562.0 L 404.5,569.1 L 401.8,576.4 L 399.4,583.8 L 397.2,591.3 L 395.2,598.9 L 393.6,606.5 L 392.1,614.3 L 391.0,622.1 L 390.1,630.0 L 389.5,637.9 L 389.2,645.9 L 389.2,653.9 L 389.4,662.0 L 389.9,670.0 L 390.7,678.0 L 391.8,686.1 L 393.2,694.1 L 394.9,702.1 L 396.8,710.0 L 399.0,717.9 L 401.5,725.8 L 404.3,733.5 L 407.4,741.2 L 410.8,748.8 L 414.4,756.3 L 418.3,763.7 L 422.4,771.0 L 426.8,778.1 L 431.5,785.1 L 436.5,792.0 L 441.6,798.6 L 447.1,805.2 L 452.8,811.5 L 458.7,817.7 L 464.8,823.6 L 471.2,829.4 L 477.7,835.0 L 484.5,840.3 L 491.5,845.4 L 498.6,850.3 L 506.0,854.9 L 513.5,859.3 L 521.2,863.4 L 529.1,867.3 L 537.1,870.9 L 545.3,874.3 L 553.5,877.3 L 562.0,880.1 L 570.5,882.6 L 579.1,884.7 L 587.8,886.6 L 596.6,888.2 L 605.5,889.5 L 614.4,890.5 L 623.4,891.2 L 632.4,891.5 L 641.4,891.6 L 650.4,891.3 L 659.5,890.7 L 668.5,889.8 L 677.5,888.6 L 686.5,887.1 L 695.5,885.2 L 704.4,883.1 L 713.2,880.6 L 722.0,877.8 L 730.7,874.7 L 739.3,871.3 L 747.8,867.6 L 756.2,863.6 L 764.5,859.3 L 772.6,854.7 L 780.6,849.8 L 788.4,844.7 L 796.0,839.2 L 803.5,833.5 L 810.8,827.5 L 817.9,821.2 L 824.8,814.7 L 831.5,807.9 L 837.9,800.9 L 844.1,793.7 L 850.1,786.2 L 855.8,778.6 L 861.2,770.7 L 866.4,762.6 L 871.4,754.3 L 876.0,745.8 L 880.4,737.2 L 884.4,728.4 L 888.2,719.4 L 891.6,710.3 L 894.8,701.1 L 897.6,691.8 L 900.1,682.3 L 902.3,672.7 L 904.1,663.1 L 905.7,653.3 L 906.9,643.6 L 907.7,633.7 L 908.2,623.8 L 908.4,613.8 L 908.2,603.9 L 907.7,593.9 L 906.8,583.9 L 905.6,574.0 L 904.0,564.1 L 902.1,554.2 L 899.8,544.4 L 897.2,534.6 L 894.3,524.9 L 891.0,515.3 L 887.4,505.9 L 883.4,496.5 L 879.1,487.2 L 874.5,478.1 L 869.6,469.2 L 864.3,460.4 L 858.8,451.8 L 852.9,443.3 L 846.7,435.1 L 840.3,427.0 L 833.5,419.2 L 826.5,411.6 L 819.2,404.2 L 811.7,397.1 L 803.8,390.2 L 795.8,383.6 L 787.5,377.3 L 778.9,371.3 L 770.2,365.5 L 761.2,360.0 L 752.1,354.9 L 742.7,350.0 L 733.2,345.5 L 723.5,341.3 L 713.7,337.4 L 703.7,333.9 L 693.6,330.7 L 683.3,327.9 L 673.0,325.4 L 662.5,323.2 L 652.0,321.5 L 641.4,320.0 L 630.7,319.0 L 620.0,318.3 L 609.3,318.0 L 598.5,318.1 L 587.7,318.5 L 576.9,319.3 L 566.2,320.5 L 555.5,322.1 L 544.8,324.0 L 534.2,326.3 L 523.6,329.0 L 513.2,332.1 L 502.8,335.5 L 492.5,339.2 L 482.4,343.4 L 472.4,347.9 L 462.5,352.7 L 452.8,357.9 L 443.3,363.4 L 434.0,369.2 L 424.8,375.4 L 415.9,381.9 L 407.1,388.8 L 398.6,395.9 L 390.4,403.3 L 382.4,411.0 L 374.6,419.1 L 367.1,427.3 L 360.0,435.9 L 353.0,444.7 L 346.4,453.7 L 340.1,463.0 L 334.2,472.5 L 328.5,482.3 L 323.2,492.2 L 318.2,502.3 L 313.6,512.6 L 309.3,523.1 L 305.3,533.7 L 301.8,544.5 L 298.6,555.4 L 295.8,566.4 L 293.3,577.5 L 291.3,588.8 L 289.6,600.1 L 288.3,611.4 L 287.4,622.8 L 287.0,634.3 L 286.9,645.8 L 287.2,657.3 L 287.9,668.8 L 289.0,680.2 L 290.5,691.7 L 292.4,703.1 L 294.6,714.4 L 297.3,725.7 L 300.4,736.9 L 303.9,748.0 L 307.7,759.0 L 311.9,769.8 L 316.6,780.5 L 321.5,791.1 L 326.9,801.5 L 332.6,811.7 L 338.7,821.7 L 345.1,831.5 L 351.9,841.1 L 359.0,850.5 L 366.4,859.7 L 374.2,868.5 L 382.2,877.2 L 390.6,885.5 L 399.3,893.6 L 408.2,901.4 L 417.4,908.8 L 426.9,916.0 L 436.6,922.8 L 446.6,929.3 L 456.8,935.5 L 467.3,941.3 L 477.9,946.7 L 488.7,951.8 L 499.7,956.5 L 510.9,960.8 L 522.3,964.8 L 533.7,968.4 L 545.4,971.5 L 557.1,974.3 L 568.9,976.7 L 580.8,978.6 L 592.8,980.2 L 604.9,981.3 L 617.0,982.0 L 629.1,982.3 L 641.2,982.2 L 653.3,981.6 L 665.4,980.7 L 677.5,979.3 L 689.5,977.5 L 701.5,975.3 L 713.4,972.7 L 725.2,969.7 L 737.0,966.2 L 748.6,962.4 L 760.1,958.1 L 771.4,953.5 L 782.6,948.4 L 793.6,943.0 L 804.5,937.2 L 815.1,931.0 L 825.6,924.5 L 835.8,917.5 L 845.8,910.3 L 855.5,902.6 L 865.0,894.7 L 874.2,886.4 L 883.1,877.8 L 891.8,868.8 L 900.1,859.6 L 908.1,850.1 L 915.8,840.3 L 923.2,830.2 L 930.2,819.9 L 936.9,809.3 L 943.2,798.5 L 949.1,787.5 L 954.7,776.3 L 959.8,764.8 L 964.6,753.2 L 969.0,741.4 L 973.0,729.5 L 976.5,717.4 L 979.7,705.2 L 982.4,692.8 L 984.7,680.4 L 986.6,667.9 L 988.1,655.3 L 989.1,642.7 L 989.7,630.0 L 989.8,617.3 L 989.5,604.5 L 988.8,591.8 L 987.6,579.0 L 986.0,566.4 L 984.0,553.7 L 981.5,541.2 L 978.6,528.7 L 975.2,516.3 L 971.4,504.0 L 967.2,491.8 L 962.6,479.8 L 957.5,468.0 L 952.1,456.3 L 946.2,444.8 L 939.9,433.5 L 933.3,422.4 L 926.2,411.5 L 918.8,400.9 L 911.0,390.5 L 902.9,380.4 L 894.4,370.6 L 885.5,361.0 L 876.4,351.8 L 866.9,342.8 L 857.1,334.2 L 846.9,326.0 L 836.5,318.1 L 825.9,310.5 L 814.9,303.3 L 803.7,296.5 L 792.3,290.0 L 780.6,284.0 L 768.8,278.3 L 756.7,273.1 L 744.4,268.3 L 732.0,263.9 L 719.4,259.9 L 706.7,256.4 L 693.9,253.3 L 680.9,250.6 L 667.9,248.4 L 654.7,246.6 L 641.5,245.3 L 628.3,244.5 L 615.0,244.1 L 601.7,244.2 L 588.4,244.7 L 575.1,245.7 L 561.9,247.1 L 548.7,249.0 L 535.5,251.3 L 522.5,254.1 L 509.5,257.4 L 496.6,261.1 L 483.9,265.3 L 471.3,269.9 L 458.8,274.9 L 446.6,280.3 L 434.5,286.2 L 422.6,292.5 L 410.9,299.3 L 399.5,306.4 L 388.2,313.9 L 377.3,321.8 L 366.6,330.1 L 356.2,338.7 L 346.1,347.8 L 336.3,357.1 L 326.9,366.8 L 317.7,376.9 L 308.9,387.2 L 300.5,397.9 L 292.4,408.8 L 284.8,420.1 L 277.4,431.6 L 270.5,443.3 L 264.0,455.3 L 257.9,467.5 L 252.3,480.0 L 247.0,492.6 L 242.2,505.4 L 237.8,518.4 L 233.9,531.6 L 230.4,544.9 L 227.4,558.3 L 224.9,571.8 L 222.8,585.4 L 221.2,599.0 L 220.0,612.8 L 219.3,626.6 L 219.2,640.4 L 219.4,654.2 L 220.2,668.0 L 221.4,681.7 L 223.1,695.5 L 225.3,709.2 L 228.0,722.8 L 231.1,736.3 L 234.7,749.7 L 238.7,763.0 L 243.3,776.2 L 248.2,789.2 L 253.6,802.0 L 259.5,814.7 L 265.8,827.1 L 272.5,839.3 L 279.7,851.3 L 287.3,863.1 L 295.2,874.6 L 303.6,885.8 L 312.4,896.8 L 321.5,907.4 L 331.0,917.7 L 340.9,927.7 L 351.1,937.4 L 361.7,946.7 L 372.5,955.6 L 383.7,964.2 L 395.2,972.4 L 406.9,980.2 L 419.0,987.6 L 431.3,994.6 L 443.8,1001.1 L 456.6,1007.2 L 469.5,1012.9 L 482.7,1018.2 L 496.1,1022.9 L 509.6,1027.3 L 523.2,1031.1 L 537.1,1034.5 L 551.0,1037.4 L 565.0,1039.8 L 579.1,1041.8 L 593.3,1043.2 L 607.5,1044.2 L 621.8,1044.7 L 636.0,1044.7 L 650.3,1044.2 L 664.5,1043.2 L 678.7,1041.7 L 692.8,1039.7 L 706.9,1037.3 L 720.9,1034.3 L 734.8,1030.9 L 748.6,1027.0 L 762.3,1022.6 L 775.8,1017.8 L 789.1,1012.5 L 802.3,1006.7 L 815.2,1000.5 L 828.0,993.8 L 840.5,986.7 L 852.8,979.2 L 864.8,971.2 L 876.5,962.8 L 888.0,954.0 L 899.1,944.9 L 910.0,935.3 L 920.5,925.4 L 930.7,915.1 L 940.5,904.4 L 949.9,893.4 L 959.0,882.1 L 967.7,870.5 L 976.0,858.6 L 983.9,846.4 L 991.3,833.9 L 998.3,821.1 L 1004.9,808.2 L 1011.1,795.0 L 1016.8,781.5 L 1022.0,767.9 L 1026.8,754.1 L 1031.1,740.1 L 1034.9,726.0 L 1038.2,711.8 L 1041.0,697.4 L 1043.4,683.0 L 1045.2,668.4 L 1046.6,653.8 L 1047.4,639.2 L 1047.8,624.5 L 1047.6,609.7 L 1046.9,595.0 L 1045.7,580.3 L 1044.0,565.6 L 1041.8,551.0 L 1039.1,536.5 L 1035.9,522.1 L 1032.2,507.7 L 1028.0,493.5 L 1023.4,479.5 L 1018.2,465.6 L 1012.5,451.8 L 1006.4,438.3 L 999.8,425.0 L 992.8,411.9 L 985.3,399.1 L 977.3,386.5 L 969.0,374.2 L 960.2,362.1 L 950.9,350.4 L 941.3,339.0 L 931.3,327.9 L 920.9,317.2 L 910.1,306.8 L 899.0,296.8 L 887.5,287.2 L 875.7,278.0 L 863.6,269.2 L 851.2,260.8 L 838.5,252.8 L 825.5,245.3 L 812.3,238.2 L 798.8,231.6 L 785.0,225.4 L 771.1,219.7 L 757.0,214.5 L 742.7,209.8 L 728.2,205.6 L 713.6,201.8 L 698.8,198.6 L 684.0,195.9 L 669.0,193.7 L 654.0,192.0 L 638.9,190.8 L 623.8,190.2 L 608.6,190.1 L 593.5,190.4 L 578.3,191.4 L 563.2,192.8 L 548.2,194.8 L 533.2,197.2 L 518.3,200.2 L 503.5,203.7 L 488.8,207.8 L 474.3,212.3 L 459.9,217.3 L 445.7,222.8 L 431.6,228.8 L 417.8,235.3 L 404.2,242.3 L 390.9,249.7 L 377.8,257.6" fill="none" stroke="#ef4351" stroke-width="2" opacity="0.85"/>
</g>
<g filter="url(#glow)">
<line x1="618.0" y1="630.1" x2="618.0" y2="630.4" stroke="rgb(238,137,50)" stroke-width="2.6" stroke-linecap="round"/>
<line x1="618.0" y1="630.4" x2="618.1" y2="630.6" stroke="rgb(205,174,57)" stroke-width="2.6" stroke-linecap="round"/>
<line x1="618.1" y1="630.6" x2="601.6" y2="638.8" stroke="rgb(237,115,55)" stroke-width="2.6" stroke-linecap="round"/>
<line x1="601.6" y1="638.8" x2="557.0" y2="671.0" stroke="rgb(234,57,67)" stroke-width="2.6" stroke-linecap="round"/>
<line x1="557.0" y1="671.0" x2="547.0" y2="692.8" stroke="rgb(234,57,67)" stroke-width="2.6" stroke-linecap="round"/>
<line x1="547.0" y1="692.8" x2="560.5" y2="696.3" stroke="rgb(234,57,67)" stroke-width="2.6" stroke-linecap="round"/>
<line x1="560.5" y1="696.3" x2="577.0" y2="693.1" stroke="rgb(234,57,67)" stroke-width="2.6" stroke-linecap="round"/>
<line x1="577.0" y1="693.1" x2="594.9" y2="680.0" stroke="rgb(237,109,56)" stroke-width="2.6" stroke-linecap="round"/>
<line x1="594.9" y1="680.0" x2="605.7" y2="671.1" stroke="rgb(213,173,54)" stroke-width="2.6" stroke-linecap="round"/>
<line x1="605.7" y1="671.1" x2="612.3" y2="667.4" stroke="rgb(124,185,90)" stroke-width="2.6" stroke-linecap="round"/>
<line x1="612.3" y1="667.4" x2="616.1" y2="683.6" stroke="rgb(201,174,59)" stroke-width="2.6" stroke-linecap="round"/>
<line x1="616.1" y1="683.6" x2="623.7" y2="692.1" stroke="rgb(223,171,50)" stroke-width="2.6" stroke-linecap="round"/>
<line x1="623.7" y1="692.1" x2="630.7" y2="684.9" stroke="rgb(130,184,88)" stroke-width="2.6" stroke-linecap="round"/>
<line x1="630.7" y1="684.9" x2="637.2" y2="682.5" stroke="rgb(85,190,106)" stroke-width="2.6" stroke-linecap="round"/>
<line x1="637.2" y1="682.5" x2="644.4" y2="680.3" stroke="rgb(49,195,121)" stroke-width="2.6" stroke-linecap="round"/>
<line x1="644.4" y1="680.3" x2="651.4" y2="677.9" stroke="rgb(22,199,132)" stroke-width="2.6" stroke-linecap="round"/>
<line x1="651.4" y1="677.9" x2="663.2" y2="680.0" stroke="rgb(51,195,120)" stroke-width="2.6" stroke-linecap="round"/>
<line x1="663.2" y1="680.0" x2="676.9" y2="680.9" stroke="rgb(93,189,103)" stroke-width="2.6" stroke-linecap="round"/>
<line x1="676.9" y1="680.9" x2="688.9" y2="676.8" stroke="rgb(110,187,96)" stroke-width="2.6" stroke-linecap="round"/>
<line x1="688.9" y1="676.8" x2="697.2" y2="668.6" stroke="rgb(98,189,101)" stroke-width="2.6" stroke-linecap="round"/>
<line x1="697.2" y1="668.6" x2="698.7" y2="657.4" stroke="rgb(40,197,125)" stroke-width="2.6" stroke-linecap="round"/>
<line x1="698.7" y1="657.4" x2="706.0" y2="647.6" stroke="rgb(39,197,125)" stroke-width="2.6" stroke-linecap="round"/>
<line x1="706.0" y1="647.6" x2="710.2" y2="636.6" stroke="rgb(27,198,130)" stroke-width="2.6" stroke-linecap="round"/>
<line x1="710.2" y1="636.6" x2="723.9" y2="623.7" stroke="rgb(100,188,100)" stroke-width="2.6" stroke-linecap="round"/>
<line x1="723.9" y1="623.7" x2="739.2" y2="606.6" stroke="rgb(203,174,58)" stroke-width="2.6" stroke-linecap="round"/>
<line x1="739.2" y1="606.6" x2="769.8" y2="581.3" stroke="rgb(234,59,67)" stroke-width="2.6" stroke-linecap="round"/>
<line x1="769.8" y1="581.3" x2="774.6" y2="555.8" stroke="rgb(234,57,67)" stroke-width="2.6" stroke-linecap="round"/>
<line x1="774.6" y1="555.8" x2="761.5" y2="537.9" stroke="rgb(234,57,67)" stroke-width="2.6" stroke-linecap="round"/>
<line x1="761.5" y1="537.9" x2="740.5" y2="526.4" stroke="rgb(236,100,58)" stroke-width="2.6" stroke-linecap="round"/>
<line x1="740.5" y1="526.4" x2="727.8" y2="509.9" stroke="rgb(237,105,57)" stroke-width="2.6" stroke-linecap="round"/>
<line x1="727.8" y1="509.9" x2="716.5" y2="488.3" stroke="rgb(235,80,62)" stroke-width="2.6" stroke-linecap="round"/>
<line x1="716.5" y1="488.3" x2="697.0" y2="476.5" stroke="rgb(236,94,59)" stroke-width="2.6" stroke-linecap="round"/>
<line x1="697.0" y1="476.5" x2="680.9" y2="455.4" stroke="rgb(234,57,67)" stroke-width="2.6" stroke-linecap="round"/>
<line x1="680.9" y1="455.4" x2="669.1" y2="390.7" stroke="rgb(234,57,67)" stroke-width="2.6" stroke-linecap="round"/>
<line x1="669.1" y1="390.7" x2="636.8" y2="400.2" stroke="rgb(234,57,67)" stroke-width="2.6" stroke-linecap="round"/>
<line x1="636.8" y1="400.2" x2="605.9" y2="396.9" stroke="rgb(234,57,67)" stroke-width="2.6" stroke-linecap="round"/>
<line x1="605.9" y1="396.9" x2="577.6" y2="414.0" stroke="rgb(234,57,67)" stroke-width="2.6" stroke-linecap="round"/>
<line x1="577.6" y1="414.0" x2="554.1" y2="427.0" stroke="rgb(234,57,67)" stroke-width="2.6" stroke-linecap="round"/>
<line x1="554.1" y1="427.0" x2="528.3" y2="439.0" stroke="rgb(234,57,67)" stroke-width="2.6" stroke-linecap="round"/>
<line x1="528.3" y1="439.0" x2="497.9" y2="442.3" stroke="rgb(234,57,67)" stroke-width="2.6" stroke-linecap="round"/>
<line x1="497.9" y1="442.3" x2="473.7" y2="459.8" stroke="rgb(234,57,67)" stroke-width="2.6" stroke-linecap="round"/>
<line x1="473.7" y1="459.8" x2="455.3" y2="482.1" stroke="rgb(234,57,67)" stroke-width="2.6" stroke-linecap="round"/>
<line x1="455.3" y1="482.1" x2="441.3" y2="508.2" stroke="rgb(234,59,67)" stroke-width="2.6" stroke-linecap="round"/>
<line x1="441.3" y1="508.2" x2="435.1" y2="537.3" stroke="rgb(237,108,56)" stroke-width="2.6" stroke-linecap="round"/>
<line x1="435.1" y1="537.3" x2="428.8" y2="563.3" stroke="rgb(238,137,50)" stroke-width="2.6" stroke-linecap="round"/>
<line x1="428.8" y1="563.3" x2="417.8" y2="588.5" stroke="rgb(238,133,51)" stroke-width="2.6" stroke-linecap="round"/>
<line x1="417.8" y1="588.5" x2="420.1" y2="615.4" stroke="rgb(240,169,43)" stroke-width="2.6" stroke-linecap="round"/>
<line x1="420.1" y1="615.4" x2="431.4" y2="641.4" stroke="rgb(129,184,88)" stroke-width="2.6" stroke-linecap="round"/>
<line x1="431.4" y1="641.4" x2="431.1" y2="667.1" stroke="rgb(135,183,86)" stroke-width="2.6" stroke-linecap="round"/>
<line x1="431.1" y1="667.1" x2="438.2" y2="689.1" stroke="rgb(105,188,98)" stroke-width="2.6" stroke-linecap="round"/>
<line x1="438.2" y1="689.1" x2="449.0" y2="712.1" stroke="rgb(72,192,111)" stroke-width="2.6" stroke-linecap="round"/>
<line x1="449.0" y1="712.1" x2="461.6" y2="733.0" stroke="rgb(46,196,122)" stroke-width="2.6" stroke-linecap="round"/>
<line x1="461.6" y1="733.0" x2="473.0" y2="756.4" stroke="rgb(64,193,115)" stroke-width="2.6" stroke-linecap="round"/>
<line x1="473.0" y1="756.4" x2="488.8" y2="776.1" stroke="rgb(63,193,115)" stroke-width="2.6" stroke-linecap="round"/>
<line x1="488.8" y1="776.1" x2="513.6" y2="786.1" stroke="rgb(22,199,132)" stroke-width="2.6" stroke-linecap="round"/>
<line x1="513.6" y1="786.1" x2="534.6" y2="800.2" stroke="rgb(22,199,132)" stroke-width="2.6" stroke-linecap="round"/>
<line x1="534.6" y1="800.2" x2="554.2" y2="818.7" stroke="rgb(31,198,128)" stroke-width="2.6" stroke-linecap="round"/>
<line x1="554.2" y1="818.7" x2="578.5" y2="832.2" stroke="rgb(62,193,116)" stroke-width="2.6" stroke-linecap="round"/>
<line x1="578.5" y1="832.2" x2="604.6" y2="840.1" stroke="rgb(77,191,110)" stroke-width="2.6" stroke-linecap="round"/>
<line x1="604.6" y1="840.1" x2="632.4" y2="836.0" stroke="rgb(25,199,131)" stroke-width="2.6" stroke-linecap="round"/>
<line x1="632.4" y1="836.0" x2="660.5" y2="837.2" stroke="rgb(42,196,124)" stroke-width="2.6" stroke-linecap="round"/>
<line x1="660.5" y1="837.2" x2="685.4" y2="829.0" stroke="rgb(22,199,132)" stroke-width="2.6" stroke-linecap="round"/>
<line x1="685.4" y1="829.0" x2="712.6" y2="821.4" stroke="rgb(22,199,132)" stroke-width="2.6" stroke-linecap="round"/>
<line x1="712.6" y1="821.4" x2="739.7" y2="812.9" stroke="rgb(47,196,122)" stroke-width="2.6" stroke-linecap="round"/>
<line x1="739.7" y1="812.9" x2="768.0" y2="801.3" stroke="rgb(90,190,104)" stroke-width="2.6" stroke-linecap="round"/>
<line x1="768.0" y1="801.3" x2="786.7" y2="779.1" stroke="rgb(52,195,120)" stroke-width="2.6" stroke-linecap="round"/>
<line x1="786.7" y1="779.1" x2="802.6" y2="754.0" stroke="rgb(22,199,132)" stroke-width="2.6" stroke-linecap="round"/>
<line x1="802.6" y1="754.0" x2="819.3" y2="729.6" stroke="rgb(22,199,132)" stroke-width="2.6" stroke-linecap="round"/>
<line x1="819.3" y1="729.6" x2="835.0" y2="704.8" stroke="rgb(31,198,128)" stroke-width="2.6" stroke-linecap="round"/>
<line x1="835.0" y1="704.8" x2="845.1" y2="676.0" stroke="rgb(31,198,128)" stroke-width="2.6" stroke-linecap="round"/>
<line x1="845.1" y1="676.0" x2="857.9" y2="647.4" stroke="rgb(83,191,107)" stroke-width="2.6" stroke-linecap="round"/>
<line x1="857.9" y1="647.4" x2="858.3" y2="615.6" stroke="rgb(68,193,113)" stroke-width="2.6" stroke-linecap="round"/>
<line x1="858.3" y1="615.6" x2="861.4" y2="582.6" stroke="rgb(108,187,97)" stroke-width="2.6" stroke-linecap="round"/>
<line x1="861.4" y1="582.6" x2="850.8" y2="555.0" stroke="rgb(67,193,114)" stroke-width="2.6" stroke-linecap="round"/>
<line x1="850.8" y1="555.0" x2="845.8" y2="521.6" stroke="rgb(111,187,96)" stroke-width="2.6" stroke-linecap="round"/>
<line x1="845.8" y1="521.6" x2="845.4" y2="483.4" stroke="rgb(240,169,43)" stroke-width="2.6" stroke-linecap="round"/>
<line x1="845.4" y1="483.4" x2="825.9" y2="453.0" stroke="rgb(240,167,43)" stroke-width="2.6" stroke-linecap="round"/>
<line x1="825.9" y1="453.0" x2="804.9" y2="424.1" stroke="rgb(239,154,46)" stroke-width="2.6" stroke-linecap="round"/>
<line x1="804.9" y1="424.1" x2="785.4" y2="387.2" stroke="rgb(236,94,59)" stroke-width="2.6" stroke-linecap="round"/>
<line x1="785.4" y1="387.2" x2="750.4" y2="369.9" stroke="rgb(237,113,55)" stroke-width="2.6" stroke-linecap="round"/>
<line x1="750.4" y1="369.9" x2="720.4" y2="342.1" stroke="rgb(234,65,65)" stroke-width="2.6" stroke-linecap="round"/>
<line x1="720.4" y1="342.1" x2="684.2" y2="316.9" stroke="rgb(234,57,67)" stroke-width="2.6" stroke-linecap="round"/>
<line x1="684.2" y1="316.9" x2="644.2" y2="299.2" stroke="rgb(234,57,67)" stroke-width="2.6" stroke-linecap="round"/>
<line x1="644.2" y1="299.2" x2="600.7" y2="309.9" stroke="rgb(234,57,67)" stroke-width="2.6" stroke-linecap="round"/>
<line x1="600.7" y1="309.9" x2="558.2" y2="314.6" stroke="rgb(234,57,67)" stroke-width="2.6" stroke-linecap="round"/>
<line x1="558.2" y1="314.6" x2="525.1" y2="337.9" stroke="rgb(236,93,59)" stroke-width="2.6" stroke-linecap="round"/>
<line x1="525.1" y1="337.9" x2="482.8" y2="344.1" stroke="rgb(234,60,66)" stroke-width="2.6" stroke-linecap="round"/>
<line x1="482.8" y1="344.1" x2="451.0" y2="370.1" stroke="rgb(236,96,59)" stroke-width="2.6" stroke-linecap="round"/>
<line x1="451.0" y1="370.1" x2="421.5" y2="399.1" stroke="rgb(238,125,52)" stroke-width="2.6" stroke-linecap="round"/>
<line x1="421.5" y1="399.1" x2="388.6" y2="422.3" stroke="rgb(237,106,56)" stroke-width="2.6" stroke-linecap="round"/>
<line x1="388.6" y1="422.3" x2="365.8" y2="456.8" stroke="rgb(238,127,52)" stroke-width="2.6" stroke-linecap="round"/>
<line x1="365.8" y1="456.8" x2="346.9" y2="493.0" stroke="rgb(239,142,49)" stroke-width="2.6" stroke-linecap="round"/>
<line x1="346.9" y1="493.0" x2="333.0" y2="529.9" stroke="rgb(239,155,46)" stroke-width="2.6" stroke-linecap="round"/>
<line x1="333.0" y1="529.9" x2="337.7" y2="572.1" stroke="rgb(130,184,88)" stroke-width="2.6" stroke-linecap="round"/>
<line x1="337.7" y1="572.1" x2="335.3" y2="609.1" stroke="rgb(96,189,102)" stroke-width="2.6" stroke-linecap="round"/>
<line x1="335.3" y1="609.1" x2="337.5" y2="647.0" stroke="rgb(64,193,115)" stroke-width="2.6" stroke-linecap="round"/>
<line x1="337.5" y1="647.0" x2="338.8" y2="685.1" stroke="rgb(78,191,109)" stroke-width="2.6" stroke-linecap="round"/>
<line x1="338.8" y1="685.1" x2="345.1" y2="719.3" stroke="rgb(85,190,106)" stroke-width="2.6" stroke-linecap="round"/>
<line x1="345.1" y1="719.3" x2="351.4" y2="758.9" stroke="rgb(142,183,83)" stroke-width="2.6" stroke-linecap="round"/>
<line x1="351.4" y1="758.9" x2="356.3" y2="801.5" stroke="rgb(239,159,45)" stroke-width="2.6" stroke-linecap="round"/>
<line x1="356.3" y1="801.5" x2="375.3" y2="840.4" stroke="rgb(238,134,51)" stroke-width="2.6" stroke-linecap="round"/>
<line x1="375.3" y1="840.4" x2="406.0" y2="868.4" stroke="rgb(239,149,47)" stroke-width="2.6" stroke-linecap="round"/>
<line x1="406.0" y1="868.4" x2="440.6" y2="893.3" stroke="rgb(240,163,44)" stroke-width="2.6" stroke-linecap="round"/>
<line x1="440.6" y1="893.3" x2="479.5" y2="910.3" stroke="rgb(200,174,59)" stroke-width="2.6" stroke-linecap="round"/>
<line x1="479.5" y1="910.3" x2="515.5" y2="929.4" stroke="rgb(216,172,53)" stroke-width="2.6" stroke-linecap="round"/>
<line x1="515.5" y1="929.4" x2="557.6" y2="934.1" stroke="rgb(152,181,79)" stroke-width="2.6" stroke-linecap="round"/>
<line x1="557.6" y1="934.1" x2="597.4" y2="937.8" stroke="rgb(126,185,90)" stroke-width="2.6" stroke-linecap="round"/>
<line x1="597.4" y1="937.8" x2="639.1" y2="947.3" stroke="rgb(186,176,65)" stroke-width="2.6" stroke-linecap="round"/>
<line x1="639.1" y1="947.3" x2="680.4" y2="938.9" stroke="rgb(150,181,80)" stroke-width="2.6" stroke-linecap="round"/>
<line x1="680.4" y1="938.9" x2="715.1" y2="919.3" stroke="rgb(59,194,117)" stroke-width="2.6" stroke-linecap="round"/>
<line x1="715.1" y1="919.3" x2="757.4" y2="914.1" stroke="rgb(133,184,87)" stroke-width="2.6" stroke-linecap="round"/>
<line x1="757.4" y1="914.1" x2="794.2" y2="896.3" stroke="rgb(142,182,83)" stroke-width="2.6" stroke-linecap="round"/>
<line x1="794.2" y1="896.3" x2="827.0" y2="869.7" stroke="rgb(119,186,92)" stroke-width="2.6" stroke-linecap="round"/>
<line x1="827.0" y1="869.7" x2="861.7" y2="846.1" stroke="rgb(166,179,73)" stroke-width="2.6" stroke-linecap="round"/>
<line x1="861.7" y1="846.1" x2="889.2" y2="812.8" stroke="rgb(164,179,74)" stroke-width="2.6" stroke-linecap="round"/>
<line x1="889.2" y1="812.8" x2="908.6" y2="774.3" stroke="rgb(131,184,87)" stroke-width="2.6" stroke-linecap="round"/>
<line x1="908.6" y1="774.3" x2="932.8" y2="738.8" stroke="rgb(186,176,65)" stroke-width="2.6" stroke-linecap="round"/>
<line x1="932.8" y1="738.8" x2="956.6" y2="698.8" stroke="rgb(239,153,46)" stroke-width="2.6" stroke-linecap="round"/>
<line x1="956.6" y1="698.8" x2="976.0" y2="656.0" stroke="rgb(237,105,57)" stroke-width="2.6" stroke-linecap="round"/>
<line x1="976.0" y1="656.0" x2="980.9" y2="608.2" stroke="rgb(236,92,60)" stroke-width="2.6" stroke-linecap="round"/>
<line x1="980.9" y1="608.2" x2="985.4" y2="558.3" stroke="rgb(234,57,67)" stroke-width="2.6" stroke-linecap="round"/>
<line x1="985.4" y1="558.3" x2="982.9" y2="512.1" stroke="rgb(234,57,67)" stroke-width="2.6" stroke-linecap="round"/>
<line x1="982.9" y1="512.1" x2="963.4" y2="465.2" stroke="rgb(234,57,67)" stroke-width="2.6" stroke-linecap="round"/>
<line x1="963.4" y1="465.2" x2="926.6" y2="430.6" stroke="rgb(236,97,58)" stroke-width="2.6" stroke-linecap="round"/>
<line x1="926.6" y1="430.6" x2="895.7" y2="393.0" stroke="rgb(237,111,55)" stroke-width="2.6" stroke-linecap="round"/>
<line x1="895.7" y1="393.0" x2="866.8" y2="355.1" stroke="rgb(236,93,59)" stroke-width="2.6" stroke-linecap="round"/>
<line x1="866.8" y1="355.1" x2="830.5" y2="321.1" stroke="rgb(235,81,62)" stroke-width="2.6" stroke-linecap="round"/>
<line x1="830.5" y1="321.1" x2="786.4" y2="298.1" stroke="rgb(236,96,59)" stroke-width="2.6" stroke-linecap="round"/>
<line x1="786.4" y1="298.1" x2="746.2" y2="268.4" stroke="rgb(234,57,67)" stroke-width="2.6" stroke-linecap="round"/>
<line x1="746.2" y1="268.4" x2="696.4" y2="257.3" stroke="rgb(235,70,64)" stroke-width="2.6" stroke-linecap="round"/>
<line x1="696.4" y1="257.3" x2="647.3" y2="257.8" stroke="rgb(237,105,57)" stroke-width="2.6" stroke-linecap="round"/>
<line x1="647.3" y1="257.8" x2="597.9" y2="263.8" stroke="rgb(238,135,50)" stroke-width="2.6" stroke-linecap="round"/>
<line x1="597.9" y1="263.8" x2="548.6" y2="266.1" stroke="rgb(238,125,53)" stroke-width="2.6" stroke-linecap="round"/>
<line x1="548.6" y1="266.1" x2="504.8" y2="275.6" stroke="rgb(237,122,53)" stroke-width="2.6" stroke-linecap="round"/>
<line x1="504.8" y1="275.6" x2="461.6" y2="300.0" stroke="rgb(239,154,46)" stroke-width="2.6" stroke-linecap="round"/>
<line x1="461.6" y1="300.0" x2="423.6" y2="328.1" stroke="rgb(215,172,53)" stroke-width="2.6" stroke-linecap="round"/>
<line x1="423.6" y1="328.1" x2="395.8" y2="369.2" stroke="rgb(78,191,109)" stroke-width="2.6" stroke-linecap="round"/>
<line x1="395.8" y1="369.2" x2="360.0" y2="396.6" stroke="rgb(111,187,96)" stroke-width="2.6" stroke-linecap="round"/>
<line x1="360.0" y1="396.6" x2="335.7" y2="436.2" stroke="rgb(60,194,116)" stroke-width="2.6" stroke-linecap="round"/>
<line x1="335.7" y1="436.2" x2="313.4" y2="476.2" stroke="rgb(42,196,124)" stroke-width="2.6" stroke-linecap="round"/>
<line x1="313.4" y1="476.2" x2="294.3" y2="516.4" stroke="rgb(48,195,122)" stroke-width="2.6" stroke-linecap="round"/>
<line x1="294.3" y1="516.4" x2="288.1" y2="561.9" stroke="rgb(22,199,132)" stroke-width="2.6" stroke-linecap="round"/>
<line x1="288.1" y1="561.9" x2="283.5" y2="605.3" stroke="rgb(22,199,132)" stroke-width="2.6" stroke-linecap="round"/>
<line x1="283.5" y1="605.3" x2="271.5" y2="651.0" stroke="rgb(52,195,120)" stroke-width="2.6" stroke-linecap="round"/>
<line x1="271.5" y1="651.0" x2="277.4" y2="697.2" stroke="rgb(42,196,124)" stroke-width="2.6" stroke-linecap="round"/>
<line x1="277.4" y1="697.2" x2="281.1" y2="740.1" stroke="rgb(90,190,104)" stroke-width="2.6" stroke-linecap="round"/>
<line x1="281.1" y1="740.1" x2="298.0" y2="784.6" stroke="rgb(88,190,105)" stroke-width="2.6" stroke-linecap="round"/>
<line x1="298.0" y1="784.6" x2="322.6" y2="823.4" stroke="rgb(59,194,117)" stroke-width="2.6" stroke-linecap="round"/>
<line x1="322.6" y1="823.4" x2="348.0" y2="863.9" stroke="rgb(81,191,108)" stroke-width="2.6" stroke-linecap="round"/>
<line x1="348.0" y1="863.9" x2="381.3" y2="895.8" stroke="rgb(60,194,116)" stroke-width="2.6" stroke-linecap="round"/>
<line x1="381.3" y1="895.8" x2="421.2" y2="921.8" stroke="rgb(22,199,132)" stroke-width="2.6" stroke-linecap="round"/>
<line x1="421.2" y1="921.8" x2="461.2" y2="946.8" stroke="rgb(22,199,132)" stroke-width="2.6" stroke-linecap="round"/>
<line x1="461.2" y1="946.8" x2="500.4" y2="972.8" stroke="rgb(79,191,109)" stroke-width="2.6" stroke-linecap="round"/>
<line x1="500.4" y1="972.8" x2="546.5" y2="988.6" stroke="rgb(94,189,103)" stroke-width="2.6" stroke-linecap="round"/>
<line x1="546.5" y1="988.6" x2="592.9" y2="999.1" stroke="rgb(116,186,94)" stroke-width="2.6" stroke-linecap="round"/>
<line x1="592.9" y1="999.1" x2="642.2" y2="999.7" stroke="rgb(109,187,96)" stroke-width="2.6" stroke-linecap="round"/>
<line x1="642.2" y1="999.7" x2="693.5" y2="1005.8" stroke="rgb(198,175,60)" stroke-width="2.6" stroke-linecap="round"/>
<line x1="693.5" y1="1005.8" x2="741.2" y2="998.8" stroke="rgb(231,170,47)" stroke-width="2.6" stroke-linecap="round"/>
<line x1="741.2" y1="998.8" x2="786.6" y2="974.4" stroke="rgb(179,177,68)" stroke-width="2.6" stroke-linecap="round"/>
<line x1="786.6" y1="974.4" x2="831.5" y2="953.3" stroke="rgb(199,175,60)" stroke-width="2.6" stroke-linecap="round"/>
<line x1="831.5" y1="953.3" x2="870.9" y2="920.4" stroke="rgb(171,179,71)" stroke-width="2.6" stroke-linecap="round"/>
<line x1="870.9" y1="920.4" x2="906.9" y2="886.5" stroke="rgb(171,179,71)" stroke-width="2.6" stroke-linecap="round"/>
<line x1="906.9" y1="886.5" x2="935.7" y2="844.4" stroke="rgb(138,183,85)" stroke-width="2.6" stroke-linecap="round"/>
<line x1="935.7" y1="844.4" x2="963.6" y2="801.7" stroke="rgb(148,182,81)" stroke-width="2.6" stroke-linecap="round"/>
<line x1="963.6" y1="801.7" x2="986.2" y2="757.4" stroke="rgb(168,179,72)" stroke-width="2.6" stroke-linecap="round"/>
<line x1="986.2" y1="757.4" x2="1010.6" y2="709.9" stroke="rgb(240,166,44)" stroke-width="2.6" stroke-linecap="round"/>
<line x1="1010.6" y1="709.9" x2="1016.6" y2="659.0" stroke="rgb(229,170,47)" stroke-width="2.6" stroke-linecap="round"/>
<line x1="1016.6" y1="659.0" x2="1020.0" y2="605.9" stroke="rgb(240,167,43)" stroke-width="2.6" stroke-linecap="round"/>
<line x1="1020.0" y1="605.9" x2="1006.6" y2="554.2" stroke="rgb(183,177,66)" stroke-width="2.6" stroke-linecap="round"/>
<line x1="1006.6" y1="554.2" x2="993.9" y2="508.5" stroke="rgb(169,179,72)" stroke-width="2.6" stroke-linecap="round"/>
<line x1="993.9" y1="508.5" x2="978.7" y2="457.8" stroke="rgb(198,175,60)" stroke-width="2.6" stroke-linecap="round"/>
<line x1="978.7" y1="457.8" x2="956.5" y2="411.2" stroke="rgb(217,172,52)" stroke-width="2.6" stroke-linecap="round"/>
<line x1="956.5" y1="411.2" x2="925.3" y2="367.5" stroke="rgb(220,172,51)" stroke-width="2.6" stroke-linecap="round"/>
<line x1="925.3" y1="367.5" x2="890.5" y2="328.7" stroke="rgb(229,171,48)" stroke-width="2.6" stroke-linecap="round"/>
<line x1="890.5" y1="328.7" x2="847.5" y2="296.2" stroke="rgb(214,173,54)" stroke-width="2.6" stroke-linecap="round"/>
<line x1="847.5" y1="296.2" x2="801.3" y2="268.4" stroke="rgb(210,173,55)" stroke-width="2.6" stroke-linecap="round"/>
<line x1="801.3" y1="268.4" x2="752.9" y2="249.2" stroke="rgb(193,175,62)" stroke-width="2.6" stroke-linecap="round"/>
<line x1="752.9" y1="249.2" x2="699.7" y2="241.4" stroke="rgb(134,184,86)" stroke-width="2.6" stroke-linecap="round"/>
<line x1="699.7" y1="241.4" x2="648.9" y2="235.9" stroke="rgb(114,186,94)" stroke-width="2.6" stroke-linecap="round"/>
<line x1="648.9" y1="235.9" x2="596.1" y2="233.6" stroke="rgb(121,185,91)" stroke-width="2.6" stroke-linecap="round"/>
<line x1="596.1" y1="233.6" x2="543.9" y2="241.8" stroke="rgb(101,188,100)" stroke-width="2.6" stroke-linecap="round"/>
<line x1="543.9" y1="241.8" x2="498.3" y2="255.3" stroke="rgb(82,191,108)" stroke-width="2.6" stroke-linecap="round"/>
<line x1="498.3" y1="255.3" x2="449.7" y2="275.2" stroke="rgb(71,192,112)" stroke-width="2.6" stroke-linecap="round"/>
<line x1="449.7" y1="275.2" x2="406.9" y2="302.3" stroke="rgb(43,196,123)" stroke-width="2.6" stroke-linecap="round"/>
</g>
<text x="570.7" y="567.0" font-size="11" fill="#525b6b" text-anchor="middle">$10</text>
<text x="521.5" y="503.9" font-size="11" fill="#525b6b" text-anchor="middle">$100</text>
<text x="472.2" y="440.9" font-size="11" fill="#525b6b" text-anchor="middle">$1K</text>
<text x="423.0" y="377.8" font-size="11" fill="#525b6b" text-anchor="middle">$10K</text>
<text x="373.7" y="314.8" font-size="11" fill="#525b6b" text-anchor="middle">$100K</text>
<text x="621.5" y="654.4" font-size="11" fill="#8a93a3" text-anchor="middle">2012</text>
<text x="701.9" y="625.1" font-size="11" fill="#8a93a3" text-anchor="middle">2013</text>
<text x="612.4" y="503.6" font-size="11" fill="#8a93a3" text-anchor="middle">2014</text>
<text x="457.1" y="639.8" font-size="11" fill="#8a93a3" text-anchor="middle">2015</text>
<text x="631.7" y="823.7" font-size="11" fill="#8a93a3" text-anchor="middle">2016</text>
<text x="840.5" y="616.7" font-size="11" fill="#8a93a3" text-anchor="middle">2017</text>
<text x="605.3" y="385.9" font-size="11" fill="#8a93a3" text-anchor="middle">2018</text>
<text x="354.8" y="646.0" font-size="11" fill="#8a93a3" text-anchor="middle">2019</text>
<text x="637.1" y="914.3" font-size="11" fill="#8a93a3" text-anchor="middle">2020</text>
<text x="921.8" y="611.8" font-size="11" fill="#8a93a3" text-anchor="middle">2021</text>
<text x="600.8" y="312.2" font-size="11" fill="#8a93a3" text-anchor="middle">2022</text>
<text x="287.3" y="650.1" font-size="11" fill="#8a93a3" text-anchor="middle">2023</text>
<text x="640.8" y="976.5" font-size="11" fill="#8a93a3" text-anchor="middle">2024</text>
<text x="979.5" y="608.3" font-size="11" fill="#8a93a3" text-anchor="middle">2025</text>
<text x="597.6" y="258.3" font-size="11" fill="#8a93a3" text-anchor="middle">2026</text>
<line x1="642.2" y1="999.7" x2="643.0" y2="1011.7" stroke="#16c784" stroke-width="2.4" opacity="0.9"/>
<line x1="693.5" y1="1005.8" x2="699.3" y2="1035.3" stroke="#16c784" stroke-width="2.4" opacity="0.9"/>
<line x1="741.2" y1="998.8" x2="748.2" y2="1020.1" stroke="#16c784" stroke-width="2.4" opacity="0.9"/>
<line x1="786.6" y1="974.4" x2="783.4" y2="967.8" stroke="#ea3943" stroke-width="2.4" opacity="0.9"/>
<line x1="831.5" y1="953.3" x2="839.2" y2="965.0" stroke="#16c784" stroke-width="2.4" opacity="0.9"/>
<line x1="870.9" y1="920.4" x2="876.5" y2="927.0" stroke="#16c784" stroke-width="2.4" opacity="0.9"/>
<line x1="906.9" y1="886.5" x2="921.2" y2="899.3" stroke="#16c784" stroke-width="2.4" opacity="0.9"/>
<line x1="935.7" y1="844.4" x2="948.6" y2="853.2" stroke="#16c784" stroke-width="2.4" opacity="0.9"/>
<line x1="963.6" y1="801.7" x2="973.2" y2="806.6" stroke="#16c784" stroke-width="2.4" opacity="0.9"/>
<line x1="986.2" y1="757.4" x2="1012.3" y2="766.4" stroke="#16c784" stroke-width="2.4" opacity="0.9"/>
<line x1="1010.6" y1="709.9" x2="1042.0" y2="716.3" stroke="#16c784" stroke-width="2.4" opacity="0.9"/>
<line x1="1016.6" y1="659.0" x2="1040.6" y2="660.7" stroke="#16c784" stroke-width="2.4" opacity="0.9"/>
<line x1="1020.0" y1="605.9" x2="1047.1" y2="604.2" stroke="#16c784" stroke-width="2.4" opacity="0.9"/>
<line x1="1006.6" y1="554.2" x2="991.7" y2="557.1" stroke="#ea3943" stroke-width="2.4" opacity="0.9"/>
<line x1="993.9" y1="508.5" x2="984.0" y2="511.7" stroke="#ea3943" stroke-width="2.4" opacity="0.9"/>
<line x1="978.7" y1="457.8" x2="994.5" y2="450.2" stroke="#16c784" stroke-width="2.4" opacity="0.9"/>
<line x1="956.5" y1="411.2" x2="978.9" y2="396.5" stroke="#16c784" stroke-width="2.4" opacity="0.9"/>
<line x1="925.3" y1="367.5" x2="942.0" y2="353.2" stroke="#16c784" stroke-width="2.4" opacity="0.9"/>
<line x1="890.5" y1="328.7" x2="910.5" y2="306.4" stroke="#16c784" stroke-width="2.4" opacity="0.9"/>
<line x1="847.5" y1="296.2" x2="858.7" y2="279.7" stroke="#16c784" stroke-width="2.4" opacity="0.9"/>
<line x1="801.3" y1="268.4" x2="807.6" y2="255.8" stroke="#16c784" stroke-width="2.4" opacity="0.9"/>
<line x1="752.9" y1="249.2" x2="748.9" y2="260.5" stroke="#ea3943" stroke-width="2.4" opacity="0.9"/>
<line x1="699.7" y1="241.4" x2="695.3" y2="262.9" stroke="#ea3943" stroke-width="2.4" opacity="0.9"/>
<line x1="648.9" y1="235.9" x2="647.7" y2="251.9" stroke="#ea3943" stroke-width="2.4" opacity="0.9"/>
<line x1="596.1" y1="233.6" x2="596.9" y2="246.8" stroke="#ea3943" stroke-width="2.4" opacity="0.9"/>
<line x1="543.9" y1="241.8" x2="546.0" y2="252.4" stroke="#ea3943" stroke-width="2.4" opacity="0.9"/>
<line x1="498.3" y1="255.3" x2="501.2" y2="264.5" stroke="#ea3943" stroke-width="2.4" opacity="0.9"/>
<line x1="449.7" y1="275.2" x2="453.5" y2="283.2" stroke="#ea3943" stroke-width="2.4" opacity="0.9"/>
<line x1="406.9" y1="302.3" x2="413.4" y2="312.4" stroke="#ea3943" stroke-width="2.4" opacity="0.9"/>
<line x1="706.8" y1="642.8" x2="744.4" y2="648.3" stroke="#a78bfa" stroke-width="1" opacity="0.6"/>
<circle cx="706.8" cy="642.8" r="3" fill="#a78bfa" stroke="#0b0e14" stroke-width="1"/>
<text x="748.4" y="651.3" font-size="10.5" fill="#a78bfa" font-weight="600" text-anchor="start">Halving 1</text>
<line x1="782.8" y1="783.3" x2="810.5" y2="809.4" stroke="#a78bfa" stroke-width="1" opacity="0.6"/>
<circle cx="782.8" cy="783.3" r="3" fill="#a78bfa" stroke="#0b0e14" stroke-width="1"/>
<text x="814.5" y="812.4" font-size="10.5" fill="#a78bfa" font-weight="600" text-anchor="start">Halving 2</text>
<line x1="640.0" y1="298.9" x2="642.3" y2="261.0" stroke="#94a3b8" stroke-width="1" opacity="0.6"/>
<circle cx="640.0" cy="298.9" r="3" fill="#94a3b8" stroke="#0b0e14" stroke-width="1"/>
<text x="646.3" y="264.0" font-size="10.5" fill="#94a3b8" font-weight="600" text-anchor="start">CME futures</text>
<line x1="711.4" y1="920.5" x2="722.8" y2="956.7" stroke="#94a3b8" stroke-width="1" opacity="0.6"/>
<circle cx="711.4" cy="920.5" r="3" fill="#94a3b8" stroke="#0b0e14" stroke-width="1"/>
<text x="726.8" y="959.7" font-size="10.5" fill="#94a3b8" font-weight="600" text-anchor="start">COVID crash</text>
<line x1="789.6" y1="899.2" x2="809.9" y2="931.4" stroke="#a78bfa" stroke-width="1" opacity="0.6"/>
<circle cx="789.6" cy="899.2" r="3" fill="#a78bfa" stroke="#0b0e14" stroke-width="1"/>
<text x="813.9" y="934.4" font-size="10.5" fill="#a78bfa" font-weight="600" text-anchor="start">Halving 3</text>
<line x1="797.8" y1="304.0" x2="816.0" y2="270.6" stroke="#94a3b8" stroke-width="1" opacity="0.6"/>
<circle cx="797.8" cy="304.0" r="3" fill="#94a3b8" stroke="#0b0e14" stroke-width="1"/>
<text x="820.0" y="273.6" font-size="10.5" fill="#94a3b8" font-weight="600" text-anchor="start">El Salvador legal tender</text>
<line x1="739.9" y1="266.3" x2="751.8" y2="230.2" stroke="#38bdf8" stroke-width="1" opacity="0.6"/>
<circle cx="739.9" cy="266.3" r="3" fill="#38bdf8" stroke="#0b0e14" stroke-width="1"/>
<text x="755.8" y="233.2" font-size="10.5" fill="#38bdf8" font-weight="600" text-anchor="start">First US futures ETF</text>
<line x1="289.3" y1="556.2" x2="252.2" y2="548.0" stroke="#94a3b8" stroke-width="1" opacity="0.6"/>
<circle cx="289.3" cy="556.2" r="3" fill="#94a3b8" stroke="#0b0e14" stroke-width="1"/>
<text x="248.2" y="551.0" font-size="10.5" fill="#94a3b8" font-weight="600" text-anchor="end">FTX collapse</text>
<line x1="635.9" y1="1000.0" x2="637.5" y2="1038.0" stroke="#38bdf8" stroke-width="1" opacity="0.6"/>
<circle cx="635.9" cy="1000.0" r="3" fill="#38bdf8" stroke="#0b0e14" stroke-width="1"/>
<text x="641.5" y="1041.0" font-size="10.5" fill="#38bdf8" font-weight="600" text-anchor="start">US spot BTC ETFs</text>
<line x1="794.0" y1="970.7" x2="811.3" y2="1004.6" stroke="#a78bfa" stroke-width="1" opacity="0.6"/>
<circle cx="794.0" cy="970.7" r="3" fill="#a78bfa" stroke="#0b0e14" stroke-width="1"/>
<text x="815.3" y="1007.6" font-size="10.5" fill="#a78bfa" font-weight="600" text-anchor="start">Halving 4</text>
<line x1="767.5" y1="254.6" x2="781.4" y2="219.3" stroke="#94a3b8" stroke-width="1" opacity="0.6"/>
<circle cx="767.5" cy="254.6" r="3" fill="#94a3b8" stroke="#0b0e14" stroke-width="1"/>
<text x="785.4" y="222.3" font-size="10.5" fill="#94a3b8" font-weight="600" text-anchor="start">ATH $126198</text>
<text x="990" y="300" font-size="12" font-weight="700" letter-spacing="1.5" fill="#ea3943" opacity="0.85">CYCLE TOPS</text>
<text x="92" y="520" font-size="12" font-weight="700" letter-spacing="1.5" fill="#16c784" opacity="0.85">CYCLE BOTTOMS</text>
<circle cx="406.9" cy="302.3" r="6" fill="rgb(43,196,123)" stroke="#e8ecf3" stroke-width="1.4" filter="url(#glow)"/>
<line x1="412.9" y1="306.3" x2="534.9" y2="357.3" stroke="#8a93a3" stroke-width="1"/>
<rect x="526.9" y="351.3" width="196" height="26" rx="13" fill="#0f141d" stroke="rgb(43,196,123)" stroke-width="1.2"/>
<circle cx="541.9" cy="364.3" r="4" fill="rgb(43,196,123)"/>
<text x="553.9" y="368.3" font-size="12.5" font-weight="700" fill="#e8ecf3">NOW  ~$77,000  &#183;  May 2026</text>
<rect x="840" y="954" width="324" height="224" rx="12" fill="#0f141d" stroke="#1e2733"/>
<text x="858" y="976" font-size="12.5" font-weight="700" fill="#e8ecf3">BUY / SELL ZONE</text>
<text x="858" y="992" font-size="10.5" fill="#8a93a3">Power-Law oscillator</text>
<rect x="858" y="1002" width="270" height="12" rx="6" fill="url(#osc)"/>
<polygon points="871.1,1000 866.1,992 876.1,992" fill="#e8ecf3"/>
<line x1="871.1" y1="1000" x2="871.1" y2="1016" stroke="#e8ecf3" stroke-width="1.5"/>
<text x="858" y="1030" font-size="10" fill="#16c784">BUY</text>
<text x="993" y="1030" font-size="10" fill="#f0a92b" text-anchor="middle">FAIR</text>
<text x="1128" y="1030" font-size="10" fill="#ea3943" text-anchor="end">SELL</text>
<text x="858" y="1052" font-size="13" font-weight="800" fill="rgb(43,196,123)">Now: BUY &#183; 5% of channel</text>
<line x1="858" y1="1076" x2="880" y2="1076" stroke="#16c784" stroke-width="2.6"/>
<line x1="880" y1="1076" x2="902" y2="1076" stroke="#ea3943" stroke-width="2.6"/>
<text x="912" y="1080" font-size="10.5" fill="#8a93a3">BTC price (cheap &#8594; expensive)</text>
<line x1="866" y1="1092" x2="866" y2="1102" stroke="#16c784" stroke-width="2.6"/>
<line x1="878" y1="1098" x2="878" y2="1108" stroke="#ea3943" stroke-width="2.6"/>
<text x="912" y="1102" font-size="10.5" fill="#8a93a3">Spot-ETF net flow (in / out)</text>
<circle cx="864" cy="1120" r="3.2" fill="#a78bfa"/>
<circle cx="878" cy="1120" r="3.2" fill="#38bdf8"/>
<circle cx="892" cy="1120" r="3.2" fill="#94a3b8"/>
<text x="912" y="1124" font-size="10.5" fill="#8a93a3">Events: halving / ETF / macro</text>
<text x="858" y="1144" font-size="9" fill="#525b6b">Educational, not financial advice.</text>
<text x="64" y="1188" font-size="14" font-weight="800" fill="#f7931a">houtini</text>
<text x="124" y="1188" font-size="11" fill="#8a93a3">&#183; data through 2026-05-26 &#183; ATH $126,198 (6 Oct 2025)</text>
<text x="64" y="1206" font-size="10" fill="#525b6b">Power Law model after G. Santostasi</text>
</svg>