<svg xmlns="http://www.w3.org/2000/svg" width="1200" height="630" viewBox="0 0 1200 630" font-family="Inter, 'Segoe UI', system-ui, -apple-system, Helvetica, Arial, sans-serif">
<defs><radialGradient id="bg" cx="72%" cy="50%" r="62%"><stop offset="0%" stop-color="#10202e"/><stop offset="100%" stop-color="#0b0e14"/></radialGradient><linearGradient id="price" x1="0" y1="1" x2="1" y2="0"><stop offset="0%" stop-color="#16c784"/><stop offset="55%" stop-color="#f0a92b"/><stop offset="100%" stop-color="#ea3943"/></linearGradient><filter id="glow" x="-40%" y="-40%" width="180%" height="180%"><feGaussianBlur stdDeviation="3" result="b"/><feMerge><feMergeNode in="b"/><feMergeNode in="SourceGraphic"/></feMerge></filter></defs>
<rect width="1200" height="630" fill="url(#bg)"/>
<circle cx="900" cy="315" r="60" fill="none" stroke="#212b3a" stroke-width="1" stroke-dasharray="1,6"/>
<circle cx="900" cy="315" r="120" fill="none" stroke="#212b3a" stroke-width="1" stroke-dasharray="1,6"/>
<circle cx="900" cy="315" r="185" fill="none" stroke="#212b3a" stroke-width="1" stroke-dasharray="1,6"/>
<circle cx="900" cy="315" r="250" fill="none" stroke="#212b3a" stroke-width="1" stroke-dasharray="1,6"/>
<line x1="900" y1="315" x2="1165.0" y2="315.0" stroke="#1b2330" stroke-width="1"/>
<line x1="900" y1="315" x2="1087.4" y2="127.6" stroke="#1b2330" stroke-width="1"/>
<line x1="900" y1="315" x2="900.0" y2="50.0" stroke="#1b2330" stroke-width="1"/>
<line x1="900" y1="315" x2="712.6" y2="127.6" stroke="#1b2330" stroke-width="1"/>
<line x1="900" y1="315" x2="635.0" y2="315.0" stroke="#1b2330" stroke-width="1"/>
<line x1="900" y1="315" x2="712.6" y2="502.4" stroke="#1b2330" stroke-width="1"/>
<line x1="900" y1="315" x2="900.0" y2="580.0" stroke="#1b2330" stroke-width="1"/>
<line x1="900" y1="315" x2="1087.4" y2="502.4" stroke="#1b2330" stroke-width="1"/>
<g filter="url(#glow)">
<path d="M 902.9,316.2 L 903.1,316.0 L 903.2,315.8 L 903.3,315.6 L 903.4,315.4 L 903.5,315.1 L 903.5,314.9 L 903.5,314.6 L 903.6,314.4 L 903.6,314.1 L 903.5,313.8 L 903.5,313.5 L 903.4,313.3 L 903.4,313.0 L 903.2,312.7 L 903.1,312.4 L 903.0,312.2 L 902.8,311.9 L 902.6,311.7 L 902.4,311.4 L 902.2,311.2 L 901.9,311.0 L 901.7,310.8 L 901.4,310.6 L 901.1,310.5 L 900.7,310.3 L 900.4,310.2 L 900.1,310.1 L 899.7,310.1 L 899.3,310.0 L 899.0,310.0 L 898.6,310.0 L 898.2,310.1 L 897.8,310.1 L 897.4,310.2 L 897.0,310.4 L 896.7,310.5 L 896.3,310.7 L 895.9,310.9 L 895.6,311.2 L 895.2,311.4 L 894.9,311.7 L 894.6,312.1 L 894.3,312.4 L 894.1,312.8 L 893.8,313.2 L 893.6,313.7 L 893.4,314.1 L 893.3,314.6 L 893.2,315.1 L 893.1,315.6 L 893.0,316.1 L 893.0,316.6 L 893.0,317.2 L 893.1,317.7 L 893.2,318.2 L 893.4,318.8 L 893.6,319.3 L 893.8,319.8 L 894.1,320.4 L 894.4,320.9 L 894.8,321.4 L 895.2,321.8 L 895.6,322.3 L 896.1,322.7 L 896.6,323.1 L 897.1,323.4 L 897.7,323.8 L 898.3,324.0 L 899.0,324.3 L 899.6,324.5 L 900.3,324.6 L 901.0,324.7 L 901.8,324.8 L 902.5,324.8 L 903.3,324.7 L 904.0,324.6 L 904.8,324.4 L 905.5,324.2 L 906.3,323.9 L 907.0,323.6 L 907.7,323.2 L 908.4,322.7 L 909.1,322.2 L 909.8,321.6 L 910.4,321.0 L 911.0,320.3 L 911.5,319.5 L 912.0,318.7 L 912.4,317.9 L 912.8,317.0 L 913.1,316.1 L 913.3,315.2 L 913.5,314.2 L 913.6,313.2 L 913.7,312.2 L 913.7,311.1 L 913.5,310.1 L 913.4,309.0 L 913.1,307.9 L 912.7,306.9 L 912.3,305.9 L 911.8,304.8 L 911.2,303.8 L 910.5,302.9 L 909.8,301.9 L 908.9,301.0 L 908.0,300.2 L 907.0,299.4 L 906.0,298.7 L 904.9,298.0 L 903.7,297.5 L 902.4,297.0 L 901.1,296.6 L 899.8,296.2 L 898.4,296.0 L 897.0,295.9 L 895.6,295.9 L 894.1,295.9 L 892.6,296.1 L 891.1,296.4 L 889.6,296.8 L 888.2,297.4 L 886.7,298.0 L 885.3,298.8 L 883.9,299.6 L 882.6,300.6 L 881.3,301.7 L 880.1,302.9 L 878.9,304.2 L 877.9,305.6 L 876.9,307.1 L 876.0,308.7 L 875.2,310.4 L 874.6,312.2 L 874.0,314.0 L 873.6,315.9 L 873.3,317.9 L 873.2,319.9 L 873.2,321.9 L 873.4,324.0 L 873.7,326.0 L 874.2,328.1 L 874.8,330.2 L 875.6,332.2 L 876.5,334.3 L 877.7,336.2 L 878.9,338.2 L 880.4,340.0 L 881.9,341.8 L 883.7,343.4 L 885.6,345.0 L 887.6,346.5 L 889.7,347.8 L 892.0,349.0 L 894.4,350.0 L 896.9,350.9 L 899.5,351.6 L 902.2,352.1 L 905.0,352.4 L 907.8,352.5 L 910.6,352.4 L 913.5,352.1 L 916.4,351.6 L 919.3,350.9 L 922.2,349.9 L 925.1,348.7 L 927.9,347.3 L 930.6,345.7 L 933.3,343.8 L 935.8,341.8 L 938.3,339.5 L 940.6,337.0 L 942.7,334.3 L 944.7,331.4 L 946.5,328.3 L 948.0,325.1 L 949.4,321.7 L 950.5,318.1 L 951.4,314.4 L 952.1,310.7 L 952.4,306.8 L 952.5,302.8 L 952.3,298.8 L 951.8,294.7 L 950.9,290.7 L 949.8,286.6 L 948.4,282.6 L 946.6,278.6 L 944.5,274.7 L 942.1,270.9 L 939.4,267.2 L 936.4,263.7 L 933.1,260.3 L 929.5,257.2 L 925.7,254.3 L 921.5,251.6 L 917.2,249.2 L 912.5,247.1 L 907.7,245.3 L 902.7,243.8 L 897.5,242.7 L 892.1,241.9 L 886.6,241.6 L 881.1,241.6 L 875.4,242.0 L 869.7,242.9 L 864.0,244.2 L 858.4,245.9 L 852.7,248.1 L 847.2,250.7 L 841.8,253.8 L 836.5,257.2 L 831.5,261.2 L 826.6,265.5 L 822.0,270.3 L 817.7,275.4 L 813.7,281.0 L 810.1,286.9 L 806.9,293.1 L 804.1,299.7 L 801.7,306.5 L 799.8,313.7 L 798.4,321.0 L 797.5,328.6 L 797.2,336.3 L 797.4,344.1 L 798.2,352.1 L 799.6,360.0 L 801.6,368.0 L 804.3,375.9 L 807.5,383.7 L 811.4,391.4 L 815.8,399.0 L 820.9,406.2 L 826.6,413.2 L 832.9,419.9 L 839.7,426.2 L 847.1,432.1 L 855.1,437.5 L 863.5,442.4 L 872.4,446.7 L 881.7,450.5 L 891.4,453.6 L 901.5,456.0 L 911.9,457.7 L 922.6,458.7 L 933.4,458.9 L 944.5,458.3 L 955.6,456.9 L 966.7,454.6 L 977.9,451.5 L 988.9,447.6 L 999.8,442.7 L 1010.5,437.1 L 1020.9,430.5 L 1031.0,423.1 L 1040.6,414.9 L 1049.8,405.8 L 1058.4,396.0 L 1066.5,385.4" fill="none" stroke="#f7931a" stroke-width="2" opacity="0.85"/>
<path d="M 905.2,317.2 L 905.4,316.8 L 905.6,316.5 L 905.8,316.1 L 905.9,315.7 L 906.0,315.2 L 906.1,314.8 L 906.2,314.3 L 906.2,313.9 L 906.2,313.4 L 906.2,312.9 L 906.1,312.4 L 906.0,311.9 L 905.9,311.5 L 905.7,311.0 L 905.5,310.5 L 905.2,310.1 L 904.9,309.6 L 904.6,309.2 L 904.2,308.8 L 903.8,308.4 L 903.4,308.0 L 902.9,307.7 L 902.4,307.4 L 901.9,307.1 L 901.3,306.8 L 900.7,306.6 L 900.1,306.5 L 899.5,306.4 L 898.8,306.3 L 898.2,306.3 L 897.5,306.3 L 896.9,306.4 L 896.2,306.5 L 895.5,306.6 L 894.8,306.9 L 894.2,307.1 L 893.5,307.5 L 892.9,307.9 L 892.3,308.3 L 891.7,308.8 L 891.1,309.3 L 890.6,309.9 L 890.1,310.5 L 889.6,311.2 L 889.2,311.9 L 888.8,312.7 L 888.5,313.4 L 888.2,314.3 L 888.0,315.1 L 887.9,316.0 L 887.8,316.9 L 887.8,317.8 L 887.8,318.8 L 887.9,319.7 L 888.1,320.7 L 888.4,321.6 L 888.7,322.6 L 889.1,323.5 L 889.6,324.4 L 890.2,325.3 L 890.8,326.1 L 891.5,326.9 L 892.3,327.7 L 893.1,328.5 L 894.0,329.1 L 895.0,329.8 L 896.0,330.3 L 897.1,330.8 L 898.2,331.2 L 899.4,331.6 L 900.6,331.8 L 901.8,332.0 L 903.1,332.1 L 904.4,332.1 L 905.7,332.0 L 907.0,331.8 L 908.4,331.5 L 909.7,331.1 L 911.0,330.6 L 912.3,330.0 L 913.6,329.3 L 914.8,328.5 L 916.0,327.5 L 917.1,326.5 L 918.2,325.4 L 919.2,324.2 L 920.1,322.9 L 920.9,321.6 L 921.7,320.1 L 922.3,318.6 L 922.9,317.0 L 923.3,315.3 L 923.7,313.6 L 923.9,311.8 L 923.9,310.0 L 923.9,308.2 L 923.7,306.4 L 923.4,304.5 L 922.9,302.7 L 922.3,300.8 L 921.5,299.0 L 920.6,297.2 L 919.6,295.5 L 918.4,293.8 L 917.1,292.1 L 915.6,290.6 L 914.0,289.1 L 912.3,287.7 L 910.5,286.5 L 908.5,285.3 L 906.4,284.3 L 904.3,283.5 L 902.0,282.7 L 899.6,282.2 L 897.2,281.8 L 894.7,281.5 L 892.2,281.5 L 889.6,281.6 L 887.1,282.0 L 884.5,282.5 L 881.9,283.2 L 879.3,284.1 L 876.8,285.3 L 874.3,286.6 L 871.8,288.1 L 869.5,289.8 L 867.2,291.7 L 865.1,293.8 L 863.1,296.1 L 861.2,298.6 L 859.5,301.3 L 858.0,304.0 L 856.6,307.0 L 855.5,310.1 L 854.6,313.3 L 853.8,316.6 L 853.4,320.0 L 853.1,323.5 L 853.1,327.1 L 853.4,330.7 L 854.0,334.3 L 854.8,338.0 L 855.9,341.6 L 857.3,345.2 L 859.0,348.7 L 860.9,352.2 L 863.1,355.5 L 865.6,358.8 L 868.4,361.9 L 871.4,364.8 L 874.7,367.5 L 878.3,370.1 L 882.0,372.4 L 886.0,374.5 L 890.2,376.2 L 894.6,377.8 L 899.1,379.0 L 903.8,379.9 L 908.7,380.4 L 913.6,380.6 L 918.6,380.5 L 923.7,380.0 L 928.7,379.1 L 933.8,377.8 L 938.9,376.1 L 943.9,374.0 L 948.8,371.6 L 953.6,368.7 L 958.2,365.5 L 962.7,361.9 L 967.0,357.8 L 971.0,353.5 L 974.7,348.8 L 978.2,343.7 L 981.3,338.3 L 984.1,332.6 L 986.5,326.7 L 988.5,320.5 L 990.0,314.0 L 991.1,307.4 L 991.7,300.6 L 991.8,293.7 L 991.5,286.6 L 990.6,279.5 L 989.1,272.4 L 987.2,265.3 L 984.6,258.2 L 981.5,251.3 L 977.9,244.4 L 973.7,237.8 L 969.0,231.4 L 963.8,225.2 L 958.0,219.4 L 951.7,213.9 L 944.9,208.7 L 937.7,204.1 L 930.0,199.8 L 921.9,196.1 L 913.5,193.0 L 904.7,190.4 L 895.6,188.5 L 886.2,187.1 L 876.6,186.5 L 866.9,186.6 L 857.0,187.3 L 847.0,188.8 L 837.1,191.1 L 827.1,194.1 L 817.3,197.9 L 807.6,202.5 L 798.1,207.8 L 788.9,213.9 L 780.0,220.8 L 771.6,228.4 L 763.5,236.7 L 756.0,245.7 L 749.0,255.4 L 742.7,265.8 L 737.0,276.7 L 732.1,288.2 L 727.9,300.2 L 724.6,312.7 L 722.2,325.5 L 720.6,338.7 L 720.1,352.3 L 720.5,366.0 L 721.9,379.8 L 724.4,393.8 L 727.9,407.7 L 732.5,421.6 L 738.1,435.3 L 744.9,448.8 L 752.7,461.9 L 761.6,474.7 L 771.6,486.9 L 782.5,498.6 L 794.5,509.6 L 807.5,519.9 L 821.4,529.4 L 836.1,537.9 L 851.7,545.5 L 868.0,552.1 L 885.0,557.5 L 902.7,561.7 L 920.9,564.7 L 939.5,566.4 L 958.5,566.8 L 977.8,565.7 L 997.2,563.3 L 1016.8,559.3 L 1036.3,553.9 L 1055.6,547.0 L 1074.7,538.6 L 1093.4,528.6 L 1111.6,517.1 L 1129.2,504.2 L 1146.1,489.8 L 1162.2,473.9 L 1177.3,456.7 L 1191.3,438.2" fill="none" stroke="#ea3943" stroke-width="2" opacity="0.7"/>
<path d="M 903.9,316.6 L 904.0,316.4 L 904.2,316.1 L 904.3,315.8 L 904.4,315.5 L 904.5,315.2 L 904.6,314.8 L 904.7,314.5 L 904.7,314.1 L 904.7,313.8 L 904.6,313.4 L 904.6,313.1 L 904.5,312.7 L 904.4,312.3 L 904.3,312.0 L 904.1,311.6 L 903.9,311.3 L 903.7,311.0 L 903.4,310.6 L 903.2,310.3 L 902.9,310.0 L 902.5,309.8 L 902.2,309.5 L 901.8,309.3 L 901.4,309.1 L 901.0,308.9 L 900.5,308.7 L 900.1,308.6 L 899.6,308.5 L 899.1,308.5 L 898.6,308.4 L 898.1,308.5 L 897.6,308.5 L 897.1,308.6 L 896.6,308.7 L 896.1,308.9 L 895.6,309.1 L 895.1,309.4 L 894.7,309.6 L 894.2,310.0 L 893.7,310.3 L 893.3,310.7 L 892.9,311.2 L 892.5,311.6 L 892.2,312.1 L 891.9,312.7 L 891.6,313.2 L 891.4,313.8 L 891.2,314.5 L 891.0,315.1 L 890.9,315.8 L 890.8,316.4 L 890.8,317.1 L 890.9,317.8 L 891.0,318.5 L 891.1,319.3 L 891.3,320.0 L 891.6,320.7 L 891.9,321.4 L 892.2,322.0 L 892.6,322.7 L 893.1,323.3 L 893.6,324.0 L 894.2,324.5 L 894.8,325.1 L 895.5,325.6 L 896.2,326.1 L 897.0,326.5 L 897.8,326.9 L 898.7,327.2 L 899.5,327.4 L 900.4,327.6 L 901.4,327.8 L 902.3,327.8 L 903.3,327.8 L 904.3,327.7 L 905.3,327.6 L 906.3,327.4 L 907.3,327.1 L 908.3,326.7 L 909.2,326.2 L 910.2,325.7 L 911.1,325.1 L 912.0,324.4 L 912.8,323.6 L 913.6,322.8 L 914.4,321.9 L 915.1,320.9 L 915.7,319.9 L 916.3,318.8 L 916.8,317.7 L 917.2,316.5 L 917.5,315.2 L 917.7,313.9 L 917.9,312.6 L 918.0,311.3 L 917.9,309.9 L 917.8,308.5 L 917.5,307.1 L 917.2,305.7 L 916.7,304.4 L 916.2,303.0 L 915.5,301.6 L 914.7,300.3 L 913.8,299.1 L 912.8,297.8 L 911.7,296.7 L 910.5,295.6 L 909.2,294.6 L 907.8,293.6 L 906.4,292.8 L 904.8,292.0 L 903.2,291.3 L 901.5,290.8 L 899.7,290.4 L 897.9,290.1 L 896.1,289.9 L 894.2,289.9 L 892.2,290.0 L 890.3,290.2 L 888.3,290.6 L 886.4,291.2 L 884.5,291.8 L 882.6,292.7 L 880.7,293.7 L 878.9,294.8 L 877.1,296.1 L 875.4,297.6 L 873.8,299.1 L 872.3,300.9 L 870.9,302.7 L 869.6,304.7 L 868.5,306.8 L 867.5,309.0 L 866.6,311.3 L 865.9,313.7 L 865.4,316.2 L 865.0,318.8 L 864.8,321.4 L 864.9,324.1 L 865.1,326.8 L 865.5,329.5 L 866.1,332.2 L 866.9,334.9 L 868.0,337.6 L 869.2,340.3 L 870.7,342.9 L 872.3,345.4 L 874.2,347.8 L 876.3,350.1 L 878.6,352.3 L 881.0,354.4 L 883.7,356.3 L 886.5,358.0 L 889.5,359.6 L 892.7,360.9 L 895.9,362.1 L 899.4,363.0 L 902.9,363.6 L 906.5,364.1 L 910.2,364.2 L 913.9,364.1 L 917.7,363.7 L 921.6,363.1 L 925.4,362.1 L 929.2,360.8 L 932.9,359.3 L 936.6,357.4 L 940.2,355.3 L 943.7,352.9 L 947.0,350.1 L 950.2,347.1 L 953.2,343.9 L 956.1,340.3 L 958.6,336.5 L 961.0,332.5 L 963.1,328.2 L 964.9,323.8 L 966.3,319.1 L 967.5,314.3 L 968.3,309.3 L 968.8,304.2 L 968.9,299.0 L 968.6,293.7 L 967.9,288.4 L 966.8,283.1 L 965.4,277.7 L 963.5,272.4 L 961.2,267.2 L 958.4,262.1 L 955.3,257.1 L 951.8,252.3 L 947.8,247.7 L 943.5,243.3 L 938.8,239.1 L 933.7,235.3 L 928.3,231.8 L 922.5,228.6 L 916.5,225.9 L 910.1,223.5 L 903.5,221.6 L 896.7,220.1 L 889.7,219.1 L 882.5,218.6 L 875.1,218.7 L 867.7,219.2 L 860.3,220.4 L 852.8,222.1 L 845.3,224.3 L 838.0,227.2 L 830.7,230.6 L 823.6,234.6 L 816.7,239.2 L 810.0,244.3 L 803.7,250.0 L 797.6,256.3 L 792.0,263.0 L 786.8,270.3 L 782.0,278.1 L 777.8,286.3 L 774.1,294.9 L 771.0,303.9 L 768.5,313.2 L 766.6,322.9 L 765.5,332.8 L 765.1,342.9 L 765.4,353.2 L 766.4,363.6 L 768.3,374.1 L 770.9,384.5 L 774.3,394.9 L 778.6,405.2 L 783.7,415.3 L 789.5,425.2 L 796.2,434.7 L 803.7,443.9 L 811.9,452.7 L 820.9,461.0 L 830.6,468.7 L 841.0,475.8 L 852.1,482.2 L 863.8,487.9 L 876.0,492.8 L 888.8,496.9 L 902.0,500.0 L 915.6,502.3 L 929.6,503.6 L 943.9,503.8 L 958.3,503.1 L 972.9,501.2 L 987.6,498.3 L 1002.2,494.2 L 1016.7,489.0 L 1031.0,482.7 L 1045.1,475.2 L 1058.7,466.6 L 1071.9,456.9 L 1084.6,446.1 L 1096.6,434.2 L 1108.0,421.3 L 1118.5,407.4" fill="none" stroke="url(#price)" stroke-width="3.4"/>
</g>
<path d="M 904.5,316.9 L 904.7,316.6 L 904.9,316.3 L 905.0,315.9 L 905.2,315.6 L 905.3,315.2 L 905.4,314.8 L 905.4,314.4 L 905.5,314.0 L 905.5,313.6 L 905.4,313.2 L 905.4,312.8 L 905.3,312.3 L 905.1,311.9 L 905.0,311.5 L 904.8,311.1 L 904.6,310.7 L 904.3,310.3 L 904.0,309.9 L 903.7,309.5 L 903.3,309.2 L 902.9,308.9 L 902.5,308.6 L 902.1,308.3 L 901.6,308.1 L 901.1,307.9 L 900.6,307.7 L 900.1,307.6 L 899.6,307.4 L 899.0,307.4 L 898.4,307.4 L 897.8,307.4 L 897.2,307.4 L 896.7,307.5 L 896.1,307.7 L 895.5,307.9 L 894.9,308.1 L 894.3,308.4 L 893.8,308.7 L 893.2,309.1 L 892.7,309.5 L 892.2,310.0 L 891.7,310.5 L 891.3,311.1 L 890.9,311.7 L 890.5,312.3 L 890.2,312.9 L 889.9,313.6 L 889.7,314.4 L 889.5,315.1 L 889.4,315.9 L 889.3,316.7 L 889.3,317.5 L 889.3,318.3 L 889.5,319.1 L 889.6,320.0 L 889.9,320.8 L 890.1,321.6 L 890.5,322.4 L 890.9,323.2 L 891.4,324.0 L 892.0,324.7 L 892.6,325.5 L 893.2,326.1 L 894.0,326.8 L 894.8,327.4 L 895.6,327.9 L 896.5,328.4 L 897.4,328.8 L 898.4,329.2 L 899.5,329.5 L 900.5,329.7 L 901.6,329.9 L 902.7,330.0 L 903.9,330.0 L 905.0,329.9 L 906.2,329.7 L 907.3,329.4 L 908.5,329.1 L 909.6,328.6 L 910.8,328.1 L 911.9,327.5 L 912.9,326.8 L 914.0,326.0 L 915.0,325.1 L 915.9,324.1 L 916.8,323.1 L 917.6,321.9 L 918.3,320.7 L 919.0,319.5 L 919.5,318.1 L 920.0,316.7 L 920.4,315.3 L 920.7,313.8 L 920.9,312.2 L 921.0,310.7 L 920.9,309.1 L 920.7,307.5 L 920.5,305.8 L 920.0,304.2 L 919.5,302.6 L 918.8,301.0 L 918.1,299.4 L 917.1,297.9 L 916.1,296.4 L 915.0,295.0 L 913.7,293.6 L 912.3,292.3 L 910.8,291.1 L 909.2,290.0 L 907.4,289.0 L 905.6,288.2 L 903.7,287.4 L 901.7,286.8 L 899.7,286.3 L 897.6,285.9 L 895.4,285.7 L 893.2,285.7 L 890.9,285.8 L 888.7,286.1 L 886.4,286.6 L 884.1,287.2 L 881.9,288.0 L 879.7,289.0 L 877.5,290.1 L 875.4,291.5 L 873.3,293.0 L 871.3,294.6 L 869.5,296.5 L 867.7,298.5 L 866.1,300.7 L 864.6,303.0 L 863.2,305.4 L 862.1,308.0 L 861.1,310.7 L 860.2,313.5 L 859.6,316.4 L 859.2,319.4 L 859.0,322.5 L 859.0,325.6 L 859.2,328.7 L 859.7,331.9 L 860.5,335.1 L 861.4,338.3 L 862.6,341.4 L 864.1,344.5 L 865.8,347.5 L 867.7,350.5 L 869.9,353.3 L 872.4,356.0 L 875.0,358.6 L 877.9,361.0 L 881.0,363.2 L 884.3,365.2 L 887.8,367.0 L 891.4,368.6 L 895.3,369.9 L 899.3,371.0 L 903.4,371.8 L 907.6,372.2 L 911.9,372.4 L 916.3,372.3 L 920.7,371.8 L 925.1,371.1 L 929.6,369.9 L 934.0,368.5 L 938.4,366.7 L 942.7,364.5 L 946.9,362.0 L 951.0,359.2 L 954.9,356.0 L 958.6,352.5 L 962.1,348.7 L 965.4,344.5 L 968.4,340.1 L 971.2,335.4 L 973.6,330.4 L 975.7,325.2 L 977.4,319.8 L 978.8,314.1 L 979.7,308.3 L 980.3,302.4 L 980.4,296.3 L 980.0,290.2 L 979.2,284.0 L 978.0,277.7 L 976.3,271.5 L 974.0,265.3 L 971.4,259.2 L 968.2,253.3 L 964.5,247.5 L 960.4,241.8 L 955.8,236.4 L 950.7,231.3 L 945.2,226.5 L 939.3,222.0 L 933.0,217.9 L 926.3,214.2 L 919.2,211.0 L 911.8,208.2 L 904.1,206.0 L 896.1,204.3 L 887.9,203.1 L 879.5,202.6 L 871.0,202.6 L 862.4,203.3 L 853.7,204.6 L 844.9,206.6 L 836.2,209.2 L 827.6,212.5 L 819.2,216.5 L 810.9,221.2 L 802.8,226.6 L 795.0,232.6 L 787.6,239.2 L 780.6,246.5 L 774.0,254.4 L 767.9,262.9 L 762.4,271.9 L 757.4,281.5 L 753.1,291.5 L 749.5,302.0 L 746.5,313.0 L 744.4,324.2 L 743.1,335.8 L 742.6,347.6 L 742.9,359.6 L 744.2,371.7 L 746.3,383.9 L 749.4,396.1 L 753.4,408.3 L 758.4,420.3 L 764.3,432.0 L 771.1,443.5 L 778.9,454.7 L 787.6,465.4 L 797.2,475.6 L 807.7,485.3 L 819.0,494.3 L 831.2,502.6 L 844.1,510.1 L 857.7,516.7 L 872.0,522.4 L 886.9,527.2 L 902.3,530.9 L 918.2,533.5 L 934.6,535.0 L 951.2,535.3 L 968.1,534.4 L 985.1,532.2 L 1002.2,528.8 L 1019.2,524.1 L 1036.2,518.0 L 1052.9,510.6 L 1069.2,501.9 L 1085.2,491.9 L 1100.6,480.5 L 1115.4,467.9 L 1129.4,454.1 L 1142.6,439.0 L 1154.9,422.8" fill="none" stroke="#e8ecf3" stroke-width="1.2" stroke-dasharray="6,5" opacity="0.4"/>
<circle cx="1118.5" cy="407.4" r="8" fill="#16c784" stroke="#e8ecf3" stroke-width="2" filter="url(#glow)"/>
<text x="80" y="150" font-size="22" font-weight="800" letter-spacing="5" fill="#f7931a">HOUTINI</text>
<text x="78" y="248" font-size="78" font-weight="800" letter-spacing="-1.5" fill="#e8ecf3">The Bitcoin</text>
<text x="78" y="330" font-size="78" font-weight="800" letter-spacing="-1.5" fill="#e8ecf3">Spiral</text>
<text x="80" y="392" font-size="26" fill="#8a93a3">Price &amp; the Power Law on a 4-year cycle map</text>
<rect x="80" y="430" width="242" height="38" rx="19" fill="#0f141d" stroke="#16c784" stroke-opacity="0.5"/>
<text x="201" y="455" font-size="17" font-weight="600" fill="#16c784" text-anchor="middle">Power-Law oscillator</text>
<rect x="336" y="430" width="198" height="38" rx="19" fill="#0f141d" stroke="#38bdf8" stroke-opacity="0.5"/>
<text x="435" y="455" font-size="17" font-weight="600" fill="#38bdf8" text-anchor="middle">Mayer · Pi Cycle</text>
<rect x="548" y="430" width="253" height="38" rx="19" fill="#0f141d" stroke="#f7931a" stroke-opacity="0.5"/>
<text x="674" y="455" font-size="17" font-weight="600" fill="#f7931a" text-anchor="middle">ETF flows &amp; sentiment</text>
<text x="80" y="545" font-size="20" font-weight="600" fill="#525b6b">richybaxter.github.io/Mandala</text>
</svg>